<svg width="1724" height="583" viewBox="0 0 1724 583" fill="none" xmlns="http://www.w3.org/2000/svg"><path stroke="#585858" stroke-dasharray="2 2" d="m291.44 88.238-187 346M291.441 87.765l191 359m198.951-250.454-199 251m387.203 3.982-184-255m184.007 254.404 193.998-255m199.01 251.614-199-251m388.83-108.078-189 359m189-359.471 194 359"/><path d="M125.943 306.148h-1.773a2.7 2.7 0 0 0-.38-1 2.8 2.8 0 0 0-.682-.733 2.9 2.9 0 0 0-.903-.455 3.5 3.5 0 0 0-1.052-.153q-1.005 0-1.801.505-.79.507-1.25 1.483-.454.978-.454 2.387 0 1.42.454 2.398.46.976 1.256 1.477.795.5 1.79.5.551 0 1.045-.148a3 3 0 0 0 .904-.449 2.74 2.74 0 0 0 1.073-1.71l1.773.006a4.7 4.7 0 0 1-.551 1.579 4.4 4.4 0 0 1-1.04 1.239q-.63.517-1.443.801a5.4 5.4 0 0 1-1.773.284q-1.51 0-2.693-.716-1.182-.721-1.863-2.062-.677-1.341-.677-3.199 0-1.864.682-3.199.682-1.341 1.864-2.057 1.182-.721 2.687-.721.927 0 1.728.267.806.26 1.448.772.643.505 1.063 1.239.42.728.568 1.665m5.641 8.028q-1.227 0-2.142-.562a3.8 3.8 0 0 1-1.421-1.574q-.505-1.011-.505-2.364 0-1.358.505-2.375a3.8 3.8 0 0 1 1.421-1.579q.915-.563 2.142-.563t2.142.563 1.42 1.579q.506 1.017.506 2.375 0 1.353-.506 2.364a3.8 3.8 0 0 1-1.42 1.574q-.915.562-2.142.562m.005-1.426q.796 0 1.319-.42.523-.421.772-1.12.256-.699.256-1.54 0-.834-.256-1.534a2.5 2.5 0 0 0-.772-1.13q-.523-.426-1.319-.426-.801 0-1.329.426a2.53 2.53 0 0 0-.778 1.13 4.5 4.5 0 0 0-.25 1.534q0 .841.25 1.54a2.5 2.5 0 0 0 .778 1.12q.528.42 1.329.42m5.959 1.25v-8.727h1.631v1.42h.108q.273-.721.892-1.125.62-.41 1.483-.409.875 0 1.466.409.596.41.881 1.125h.09q.313-.699.995-1.113.681-.421 1.625-.421 1.187 0 1.937.744.756.745.756 2.245V314h-1.699v-5.693q0-.887-.483-1.284a1.76 1.76 0 0 0-1.153-.398q-.83 0-1.29.511-.46.506-.46 1.302V314h-1.693v-5.801q0-.71-.444-1.142-.443-.432-1.153-.432-.483 0-.892.256a1.87 1.87 0 0 0-.654.699 2.15 2.15 0 0 0-.244 1.039V314zm14.141 0v-8.727h1.631v1.42h.108a2.25 2.25 0 0 1 .892-1.125q.619-.41 1.483-.409.875 0 1.465.409.597.41.881 1.125h.091q.313-.699.994-1.113.683-.421 1.625-.421 1.188 0 1.938.744.756.745.756 2.245V314h-1.699v-5.693q0-.887-.483-1.284a1.76 1.76 0 0 0-1.154-.398q-.83 0-1.289.511-.46.506-.461 1.302V314h-1.693v-5.801q0-.71-.443-1.142t-1.153-.432q-.483 0-.892.256a1.87 1.87 0 0 0-.654.699 2.13 2.13 0 0 0-.244 1.039V314zm14.141 0v-8.727h1.698V314zm.858-10.074a1.08 1.08 0 0 1-.762-.295.96.96 0 0 1-.312-.716q0-.421.312-.716.318-.301.762-.301.443 0 .755.301a.94.94 0 0 1 .318.716.95.95 0 0 1-.318.716q-.312.295-.755.295m7.2 1.347v1.363h-4.767v-1.363zm-3.489-2.091h1.699v8.256q0 .493.148.744a.77.77 0 0 0 .38.335q.24.085.517.085.205 0 .358-.028.154-.028.239-.046l.307 1.404a3 3 0 0 1-.421.113 3.3 3.3 0 0 1-.681.069 3 3 0 0 1-1.25-.239 2.14 2.14 0 0 1-.938-.773q-.358-.523-.358-1.312zM175.767 314v-8.727h1.631v1.42h.108q.273-.721.892-1.125.62-.41 1.483-.409.875 0 1.466.409.596.41.88 1.125h.091q.313-.699.994-1.113.683-.421 1.626-.421 1.187 0 1.937.744.756.745.756 2.245V314h-1.699v-5.693q0-.887-.483-1.284a1.76 1.76 0 0 0-1.154-.398q-.83 0-1.289.511-.46.506-.461 1.302V314h-1.693v-5.801q0-.71-.443-1.142t-1.153-.432q-.483 0-.892.256a1.87 1.87 0 0 0-.654.699 2.13 2.13 0 0 0-.244 1.039V314zm17.902.176q-1.29 0-2.222-.551a3.74 3.74 0 0 1-1.431-1.563q-.5-1.011-.5-2.369 0-1.341.5-2.363a3.9 3.9 0 0 1 1.409-1.597q.909-.574 2.125-.574.738 0 1.432.244.693.245 1.244.767.55.524.869 1.358.318.83.318 2.017v.603h-6.937v-1.273h5.273q0-.67-.273-1.187a2.06 2.06 0 0 0-.767-.824q-.49-.302-1.148-.302-.716 0-1.25.353a2.36 2.36 0 0 0-.818.909 2.6 2.6 0 0 0-.284 1.21v.994q0 .876.307 1.489.312.614.869.938.557.318 1.301.318a2.7 2.7 0 0 0 .881-.137q.397-.141.687-.42t.443-.688l1.608.29a2.9 2.9 0 0 1-.693 1.244 3.35 3.35 0 0 1-1.244.824q-.745.29-1.699.29m7.328-5.358V314h-1.699v-8.727h1.631v1.42h.108q.301-.693.943-1.113.647-.421 1.631-.421.891 0 1.562.375.67.37 1.04 1.102.369.733.369 1.813V314h-1.698v-5.347q0-.948-.495-1.483-.494-.539-1.358-.539-.59 0-1.051.255a1.84 1.84 0 0 0-.721.75q-.262.489-.262 1.182m11.938-3.545v1.363h-4.767v-1.363zm-3.489-2.091h1.699v8.256q0 .493.148.744a.77.77 0 0 0 .38.335q.239.085.517.085.205 0 .358-.028.154-.028.239-.046l.307 1.404a3 3 0 0 1-.421.113 3.3 3.3 0 0 1-.682.069 3 3 0 0 1-1.25-.239 2.15 2.15 0 0 1-.937-.773q-.358-.523-.358-1.312zm13.676 2.091v1.363h-4.767v-1.363zm-3.488-2.091h1.698v8.256q0 .493.148.744a.77.77 0 0 0 .381.335q.238.085.517.085.204 0 .358-.028t.238-.046l.307 1.404a3 3 0 0 1-.42.113 3.3 3.3 0 0 1-.682.069 3 3 0 0 1-1.25-.239 2.15 2.15 0 0 1-.938-.773q-.357-.523-.357-1.312zm8.95 10.994q-1.227 0-2.142-.562a3.8 3.8 0 0 1-1.421-1.574q-.505-1.011-.505-2.364 0-1.358.505-2.375a3.8 3.8 0 0 1 1.421-1.579q.915-.563 2.142-.563t2.142.563 1.42 1.579q.506 1.017.506 2.375 0 1.353-.506 2.364a3.8 3.8 0 0 1-1.42 1.574q-.915.562-2.142.562m.005-1.426q.796 0 1.319-.42.523-.421.772-1.12.256-.699.256-1.54 0-.834-.256-1.534a2.5 2.5 0 0 0-.772-1.13q-.523-.426-1.319-.426-.801 0-1.329.426a2.53 2.53 0 0 0-.778 1.13 4.5 4.5 0 0 0-.25 1.534q0 .841.25 1.54a2.5 2.5 0 0 0 .778 1.12q.528.42 1.329.42M116.278 333v-11.636h7.296v1.511h-5.54v3.545h5.159v1.506h-5.159v3.563h5.608V333zm15.397 3.273v-4.631h-.103q-.153.279-.443.636-.283.358-.784.625-.5.267-1.295.267-1.058 0-1.887-.539-.824-.546-1.295-1.551-.466-1.012-.466-2.427t.472-2.42q.477-1.006 1.306-1.54a3.4 3.4 0 0 1 1.881-.534q.813 0 1.307.273.5.267.773.625.278.357.431.631h.142v-1.415h1.66v12zm-2.25-4.551q.732 0 1.238-.387.512-.392.773-1.085.267-.693.267-1.614 0-.909-.261-1.591t-.767-1.062-1.25-.381q-.768 0-1.279.398t-.772 1.085a4.4 4.4 0 0 0-.256 1.551q0 .876.261 1.574.262.699.773 1.108.517.404 1.273.404m11.761-2.341v-5.108h1.705V333h-1.671v-1.511h-.091q-.3.699-.966 1.164-.658.46-1.642.461-.84 0-1.488-.37-.642-.375-1.012-1.108-.363-.732-.363-1.812v-5.551h1.699v5.346q0 .892.494 1.421.494.528 1.284.528.477 0 .949-.238.477-.24.79-.722.318-.483.312-1.227m6.527 3.812a3.6 3.6 0 0 1-1.5-.307 2.5 2.5 0 0 1-1.062-.903q-.387-.591-.387-1.449 0-.739.284-1.216t.767-.756a4 4 0 0 1 1.08-.42 11 11 0 0 1 1.216-.216l1.273-.148q.488-.062.71-.198.22-.137.221-.444v-.039q0-.745-.42-1.154-.415-.41-1.239-.409-.857 0-1.352.381-.489.375-.676.835l-1.597-.364q.284-.795.83-1.284.551-.494 1.267-.716a5 5 0 0 1 1.506-.227q.522 0 1.107.125.591.12 1.103.443.517.324.846.926.33.597.33 1.552V333h-1.659v-1.193h-.068q-.165.33-.495.648a2.6 2.6 0 0 1-.846.528q-.517.21-1.239.21m.369-1.363q.705 0 1.205-.279.506-.278.767-.727.267-.454.267-.972v-1.125q-.091.091-.352.171a5 5 0 0 1-.585.13q-.33.052-.643.097l-.522.068q-.495.063-.904.21a1.55 1.55 0 0 0-.647.427q-.239.272-.239.727 0 .63.466.954.465.319 1.187.319m7.9-10.466V333h-1.699v-11.636zM158.267 333v-8.727h1.699V333zm.858-10.074a1.08 1.08 0 0 1-.761-.295.96.96 0 0 1-.313-.716q0-.421.313-.716.318-.301.761-.301.442 0 .756.301a.94.94 0 0 1 .318.716.95.95 0 0 1-.318.716 1.06 1.06 0 0 1-.756.295m7.2 1.347v1.363h-4.767v-1.363zm-3.488-2.091h1.699v8.256q0 .493.147.744a.78.78 0 0 0 .381.335q.238.085.517.085.204 0 .358-.028.153-.028.239-.046l.306 1.404a3 3 0 0 1-.42.113 3.3 3.3 0 0 1-.682.069 3 3 0 0 1-1.25-.239 2.14 2.14 0 0 1-.937-.773q-.358-.523-.358-1.312zm6.441 14.091q-.38 0-.693-.063a2.2 2.2 0 0 1-.466-.125l.409-1.392q.467.126.83.108a1 1 0 0 0 .642-.273q.284-.255.5-.835l.21-.579-3.193-8.841h1.818l2.21 6.772h.091l2.211-6.772h1.823l-3.596 9.892a4 4 0 0 1-.636 1.153 2.5 2.5 0 0 1-.921.716q-.534.239-1.239.239m14.763-3.08a3.6 3.6 0 0 1-1.5-.307 2.5 2.5 0 0 1-1.062-.903q-.387-.591-.387-1.449 0-.739.284-1.216t.767-.756a4 4 0 0 1 1.08-.42 11 11 0 0 1 1.216-.216l1.273-.148q.488-.062.71-.198.221-.137.221-.444v-.039q0-.745-.42-1.154-.415-.41-1.239-.409-.857 0-1.352.381-.489.375-.676.835l-1.597-.364q.285-.795.83-1.284.551-.494 1.267-.716a5 5 0 0 1 1.506-.227q.522 0 1.108.125.59.12 1.102.443.517.324.846.926.33.597.33 1.552V333h-1.659v-1.193h-.068q-.165.33-.495.648a2.6 2.6 0 0 1-.846.528q-.517.21-1.239.21m.37-1.363q.704 0 1.204-.279.506-.278.767-.727.267-.454.267-.972v-1.125q-.09.091-.352.171a5 5 0 0 1-.585.13q-.33.052-.642.097l-.523.068q-.495.063-.904.21a1.56 1.56 0 0 0-.647.427q-.239.272-.239.727 0 .63.466.954.466.319 1.188.319m7.899-4.012V333h-1.699v-8.727h1.63v1.42h.108q.302-.693.944-1.113.647-.421 1.63-.421.893 0 1.563.375.67.37 1.04 1.102.369.733.369 1.813V333h-1.699v-5.347q0-.948-.494-1.483-.495-.539-1.358-.539a2.13 2.13 0 0 0-1.051.255 1.85 1.85 0 0 0-.722.75q-.261.489-.261 1.182m11.13 5.352q-1.056 0-1.886-.539-.824-.546-1.295-1.551-.466-1.012-.466-2.427t.471-2.42q.477-1.006 1.307-1.54a3.4 3.4 0 0 1 1.881-.534q.812 0 1.307.273.5.267.772.625.279.357.432.631h.102v-4.324h1.699V333h-1.659v-1.358h-.142q-.153.279-.443.636-.285.358-.784.625t-1.296.267m.375-1.448q.733 0 1.239-.387.511-.392.773-1.085.267-.693.267-1.614 0-.909-.262-1.591-.261-.681-.767-1.062-.505-.381-1.25-.381-.767 0-1.278.398-.512.398-.773 1.085-.255.689-.255 1.551 0 .876.261 1.574t.773 1.108q.517.404 1.272.404M120.045 352h-3.767v-11.636h3.887q1.71 0 2.937.698a4.6 4.6 0 0 1 1.881 1.995q.659 1.294.659 3.108 0 1.818-.665 3.125a4.66 4.66 0 0 1-1.909 2.011q-1.25.699-3.023.699m-2.011-1.534h1.915q1.33 0 2.21-.5a3.15 3.15 0 0 0 1.318-1.46q.438-.96.438-2.341 0-1.37-.438-2.324a3.1 3.1 0 0 0-1.289-1.449q-.858-.494-2.131-.494h-2.023zm9.655 1.534v-8.727h1.699V352zm.858-10.074q-.444 0-.761-.295a.96.96 0 0 1-.313-.716q0-.421.313-.716.317-.301.761-.301.442 0 .756.301a.94.94 0 0 1 .318.716.95.95 0 0 1-.318.716 1.06 1.06 0 0 1-.756.295m10.592 1.347L135.974 352h-1.818l-3.17-8.727h1.824l2.21 6.716h.091l2.204-6.716zm5.061 8.903q-1.29 0-2.221-.551a3.73 3.73 0 0 1-1.432-1.563q-.5-1.011-.5-2.369 0-1.341.5-2.363a3.9 3.9 0 0 1 1.409-1.597q.909-.574 2.125-.574a4.3 4.3 0 0 1 1.432.244q.693.245 1.244.767.552.524.869 1.358.32.83.319 2.017v.603h-6.938v-1.273h5.273q0-.67-.273-1.187a2.05 2.05 0 0 0-.767-.824q-.488-.302-1.148-.302-.716 0-1.25.353a2.36 2.36 0 0 0-.818.909 2.6 2.6 0 0 0-.284 1.21v.994q0 .876.307 1.489.312.614.869.938.557.318 1.301.318a2.7 2.7 0 0 0 .881-.137q.397-.141.688-.42a1.84 1.84 0 0 0 .443-.688l1.608.29q-.193.71-.694 1.244a3.35 3.35 0 0 1-1.244.824q-.744.29-1.699.29m5.63-.176v-8.727h1.642v1.386h.09q.24-.705.841-1.108a2.4 2.4 0 0 1 1.375-.409q.159 0 .375.011.222.011.347.029v1.625a3 3 0 0 0-.364-.063 3.5 3.5 0 0 0-.522-.039q-.603 0-1.074.255a1.9 1.9 0 0 0-1.012 1.71V352zm12.68-6.597-1.54.273a1.8 1.8 0 0 0-.307-.562 1.5 1.5 0 0 0-.556-.438q-.353-.17-.881-.17-.722 0-1.205.324-.483.318-.483.823 0 .438.324.705t1.046.437l1.386.319q1.205.277 1.795.858.591.58.591 1.505 0 .784-.454 1.398-.449.607-1.256.955-.8.346-1.858.346-1.465 0-2.392-.625-.926-.63-1.136-1.79l1.642-.25q.153.642.631.972.477.324 1.244.324.835 0 1.335-.347.5-.353.5-.858a.89.89 0 0 0-.307-.687q-.3-.279-.926-.421l-1.477-.324q-1.222-.278-1.807-.886-.58-.607-.58-1.54a2.2 2.2 0 0 1 .432-1.352q.432-.579 1.193-.903.762-.33 1.745-.33 1.414 0 2.227.614.813.608 1.074 1.63m2.038 6.597v-8.727h1.699V352zm.858-10.074a1.08 1.08 0 0 1-.761-.295.96.96 0 0 1-.313-.716.95.95 0 0 1 .313-.716q.318-.301.761-.301.444 0 .756.301a.94.94 0 0 1 .318.716.95.95 0 0 1-.318.716q-.312.295-.756.295m7.201 1.347v1.363h-4.768v-1.363zm-3.489-2.091h1.699v8.256q0 .494.147.744a.78.78 0 0 0 .381.335q.239.085.517.085.205 0 .358-.028t.239-.046l.307 1.404a3 3 0 0 1-.421.113 3.3 3.3 0 0 1-.682.069 3 3 0 0 1-1.25-.239 2.14 2.14 0 0 1-.937-.773q-.358-.523-.358-1.312zm6.442 14.091q-.38 0-.694-.063a2 2 0 0 1-.465-.125l.409-1.392q.466.126.829.108a1 1 0 0 0 .642-.273q.285-.255.5-.835l.21-.579-3.193-8.841h1.818l2.211 6.772h.091l2.21-6.772h1.824l-3.597 9.892a4 4 0 0 1-.636 1.153 2.5 2.5 0 0 1-.921.716q-.534.239-1.238.239M187.919 352v-11.636h4.148q1.358 0 2.25.494a3.2 3.2 0 0 1 1.335 1.352q.443.853.443 1.921 0 1.074-.449 1.931-.442.853-1.341 1.353-.891.494-2.244.494h-2.852v-1.489h2.693q.858 0 1.392-.295.534-.301.784-.818.25-.518.25-1.176 0-.66-.25-1.171a1.8 1.8 0 0 0-.79-.801q-.533-.29-1.409-.29h-2.204V352zm13.665.176q-1.227 0-2.142-.562a3.8 3.8 0 0 1-1.421-1.574q-.505-1.011-.505-2.364 0-1.358.505-2.375a3.8 3.8 0 0 1 1.421-1.579q.915-.563 2.142-.563t2.142.563 1.42 1.579q.506 1.017.506 2.375 0 1.353-.506 2.364a3.8 3.8 0 0 1-1.42 1.574q-.915.562-2.142.562m.005-1.426q.796 0 1.319-.42.523-.421.772-1.12.256-.699.256-1.54 0-.834-.256-1.534a2.5 2.5 0 0 0-.772-1.13q-.523-.426-1.319-.426-.801 0-1.329.426a2.53 2.53 0 0 0-.778 1.13 4.5 4.5 0 0 0-.25 1.534q0 .841.25 1.54a2.5 2.5 0 0 0 .778 1.12q.528.42 1.329.42m7.658-10.386V352h-1.699v-11.636zM211.533 352v-8.727h1.699V352zm.858-10.074a1.08 1.08 0 0 1-.762-.295.96.96 0 0 1-.312-.716q0-.421.312-.716.318-.301.762-.301.443 0 .755.301a.94.94 0 0 1 .318.716.95.95 0 0 1-.318.716q-.312.295-.755.295m6.802 10.25q-1.267 0-2.182-.574a3.8 3.8 0 0 1-1.397-1.596q-.489-1.017-.489-2.33 0-1.329.5-2.346a3.83 3.83 0 0 1 1.409-1.597q.909-.574 2.142-.574.995 0 1.773.369.778.365 1.256 1.023.483.66.573 1.54h-1.653a2 2 0 0 0-.625-1.057q-.483-.443-1.295-.443-.711 0-1.245.375-.528.369-.824 1.057-.295.681-.295 1.613 0 .955.29 1.648t.818 1.074q.534.381 1.256.381.482 0 .875-.177.397-.181.664-.517a1.94 1.94 0 0 0 .381-.806h1.653a3.2 3.2 0 0 1-.551 1.511 3.17 3.17 0 0 1-1.233 1.045q-.766.381-1.801.381m6.476 3.097a3.5 3.5 0 0 1-.693-.063 2.2 2.2 0 0 1-.466-.125l.409-1.392q.466.126.83.108a1 1 0 0 0 .642-.273q.284-.255.5-.835l.21-.579-3.193-8.841h1.818l2.21 6.772h.091l2.21-6.772h1.824l-3.597 9.892a3.9 3.9 0 0 1-.636 1.153 2.5 2.5 0 0 1-.92.716q-.534.239-1.239.239M1480.28 314v-11.636h4.15q1.35 0 2.25.494c.59.329 1.04.78 1.33 1.352.3.568.44 1.209.44 1.921 0 .716-.15 1.36-.44 1.931q-.45.853-1.35 1.353c-.59.329-1.34.494-2.24.494h-2.85v-1.489h2.69c.57 0 1.04-.098 1.39-.295.36-.201.62-.473.79-.818.16-.345.25-.737.25-1.176 0-.44-.09-.83-.25-1.171a1.8 1.8 0 0 0-.79-.801q-.54-.29-1.41-.29h-2.21V314zm10.1 0v-8.727h1.64v1.386h.09q.24-.705.84-1.108c.41-.273.86-.409 1.38-.409a8 8 0 0 1 .72.04v1.625c-.07-.019-.19-.04-.37-.063a3.5 3.5 0 0 0-.52-.039c-.4 0-.76.085-1.07.255a1.9 1.9 0 0 0-.74.699q-.27.444-.27 1.011V314zm9.5.176c-.82 0-1.53-.187-2.14-.562s-1.08-.9-1.42-1.574q-.51-1.011-.51-2.364 0-1.358.51-2.375c.34-.678.81-1.204 1.42-1.579s1.32-.563 2.14-.563 1.53.188 2.14.563 1.09.901 1.42 1.579q.51 1.017.51 2.375 0 1.353-.51 2.364a3.75 3.75 0 0 1-1.42 1.574c-.61.375-1.32.562-2.14.562m.01-1.426c.53 0 .97-.14 1.31-.42q.525-.421.78-1.12c.17-.466.25-.979.25-1.54 0-.556-.08-1.068-.25-1.534a2.53 2.53 0 0 0-.78-1.13c-.34-.284-.78-.426-1.31-.426-.54 0-.98.142-1.33.426q-.525.426-.78 1.13c-.17.466-.25.978-.25 1.534 0 .561.08 1.074.25 1.54q.255.699.78 1.12c.35.28.79.42 1.33.42m13.12-7.477-3.16 8.727h-1.82l-3.17-8.727h1.82l2.21 6.716h.1l2.2-6.716zm1.6 8.727v-8.727h1.7V314zm.86-10.074c-.3 0-.55-.098-.76-.295a.964.964 0 0 1 0-1.432c.21-.201.46-.301.76-.301.29 0 .55.1.75.301.22.197.32.435.32.716 0 .276-.1.515-.32.716-.2.197-.46.295-.75.295m6.39 10.244c-.7 0-1.33-.179-1.88-.539-.55-.364-.99-.881-1.3-1.551-.31-.675-.47-1.483-.47-2.427q0-1.415.48-2.42c.31-.671.75-1.184 1.3-1.54a3.4 3.4 0 0 1 1.88-.534c.55 0 .98.091 1.31.273.33.178.59.386.77.625.19.238.33.449.43.631h.11v-4.324h1.7V314h-1.66v-1.358h-.15c-.1.186-.25.398-.44.636q-.285.358-.78.625c-.34.178-.77.267-1.3.267m.38-1.448c.49 0 .9-.129 1.24-.387.34-.261.59-.623.77-1.085q.27-.693.27-1.614 0-.909-.27-1.591a2.35 2.35 0 0 0-.76-1.062c-.34-.254-.76-.381-1.25-.381-.51 0-.94.133-1.28.398s-.6.627-.77 1.085a4.4 4.4 0 0 0-.26 1.551c0 .584.09 1.108.26 1.574.18.466.43.835.77 1.108.35.269.77.404 1.28.404m6.37 1.278v-8.727h1.7V314zm.86-10.074c-.3 0-.55-.098-.76-.295a.964.964 0 0 1 0-1.432c.21-.201.46-.301.76-.301.29 0 .55.1.75.301.22.197.32.435.32.716 0 .276-.1.515-.32.716-.2.197-.46.295-.75.295m4.82 4.892V314h-1.69v-8.727h1.63v1.42h.1c.2-.462.52-.833.95-1.113.43-.281.97-.421 1.63-.421q.885 0 1.56.375c.45.246.79.614 1.04 1.102s.37 1.093.37 1.813V314h-1.7v-5.347c0-.632-.16-1.126-.49-1.483-.33-.359-.79-.539-1.36-.539q-.6 0-1.05.255-.465.257-.72.75-.27.489-.27 1.182m11.53 8.637c-.7 0-1.29-.091-1.79-.273a3.5 3.5 0 0 1-1.22-.722 3 3 0 0 1-.7-.983l1.46-.602c.1.167.24.343.41.528.17.19.4.351.7.483.3.133.68.199 1.15.199.65 0 1.18-.157 1.6-.471q.63-.466.63-1.489v-1.716h-.11c-.1.186-.25.392-.44.619a2.4 2.4 0 0 1-.78.591c-.34.167-.77.25-1.31.25-.68 0-1.31-.161-1.86-.483-.55-.325-.98-.805-1.31-1.437-.31-.637-.47-1.419-.47-2.347s.15-1.723.47-2.386.75-1.171 1.31-1.523c.55-.356 1.18-.534 1.88-.534.54 0 .98.091 1.31.273q.495.267.78.625c.19.238.33.449.43.631h.13v-1.415h1.66v8.92c0 .75-.17 1.366-.52 1.847q-.525.722-1.41 1.068c-.59.231-1.26.347-2 .347m-.02-4.995c.49 0 .9-.113 1.24-.341.34-.231.6-.56.77-.988q.27-.648.27-1.551c0-.588-.09-1.105-.26-1.552-.18-.447-.43-.795-.77-1.045-.34-.254-.75-.381-1.25-.381-.51 0-.94.133-1.28.398-.34.261-.6.617-.77 1.068s-.26.955-.26 1.512c0 .572.09 1.073.26 1.505q.27.648.78 1.012c.34.242.77.363 1.27.363m14.23 1.716q-1.29 0-2.22-.551a3.67 3.67 0 0 1-1.43-1.563c-.34-.674-.5-1.464-.5-2.369 0-.894.16-1.682.5-2.363.33-.682.8-1.214 1.4-1.597q.915-.574 2.13-.574c.49 0 .97.082 1.43.244.46.163.88.419 1.25.767.36.349.65.802.86 1.358.22.553.32 1.226.32 2.017v.603h-6.93v-1.273h5.27q0-.67-.27-1.187a2.1 2.1 0 0 0-.77-.824 2.16 2.16 0 0 0-1.15-.302c-.48 0-.89.118-1.25.353-.35.231-.62.534-.82.909-.19.371-.28.774-.28 1.21v.994c0 .584.1 1.08.31 1.489.2.409.49.722.86.938.38.212.81.318 1.31.318.32 0 .61-.046.88-.137a1.86 1.86 0 0 0 1.13-1.108l1.6.29c-.12.474-.36.888-.69 1.244-.33.353-.74.627-1.24.824-.5.194-1.07.29-1.7.29m8.89-.006c-.7 0-1.33-.179-1.88-.539-.55-.364-.98-.881-1.3-1.551-.31-.675-.46-1.483-.46-2.427 0-.943.15-1.75.47-2.42.32-.671.75-1.184 1.31-1.54.55-.356 1.18-.534 1.88-.534.54 0 .97.091 1.3.273.34.178.59.386.78.625.18.238.33.449.43.631h.1v-4.324h1.7V314h-1.66v-1.358h-.14q-.15.279-.45.636-.285.358-.78.625c-.33.178-.76.267-1.3.267m.38-1.448c.49 0 .9-.129 1.24-.387.34-.261.6-.623.77-1.085q.27-.693.27-1.614c0-.606-.09-1.136-.26-1.591-.18-.454-.43-.808-.77-1.062s-.75-.381-1.25-.381c-.51 0-.94.133-1.28.398s-.6.627-.77 1.085a4.4 4.4 0 0 0-.26 1.551c0 .584.09 1.108.26 1.574q.27.699.78 1.108c.34.269.77.404 1.27.404m11.9-2.341v-5.108h1.71V314h-1.67v-1.511h-.1q-.3.699-.96 1.164c-.44.307-.99.461-1.64.461-.56 0-1.06-.123-1.49-.37a2.54 2.54 0 0 1-1.01-1.108c-.25-.488-.37-1.092-.37-1.812v-5.551h1.7v5.346c0 .595.17 1.068.5 1.421.33.352.75.528 1.28.528.32 0 .64-.079.95-.238.32-.16.58-.4.79-.722s.32-.731.31-1.227m7.67 3.795q-1.275 0-2.19-.574a3.8 3.8 0 0 1-1.39-1.596c-.33-.678-.49-1.455-.49-2.33 0-.886.16-1.668.5-2.346q.495-1.023 1.41-1.597c.6-.383 1.32-.574 2.14-.574q.99 0 1.77.369.78.365 1.26 1.023.48.66.57 1.54h-1.65a1.96 1.96 0 0 0-.63-1.057q-.48-.443-1.29-.443c-.48 0-.89.125-1.25.375-.35.246-.62.598-.82 1.057q-.3.681-.3 1.613c0 .637.1 1.186.29 1.648.2.462.47.82.82 1.074q.54.381 1.26.381.48 0 .87-.177c.27-.121.49-.293.67-.517.18-.223.3-.492.38-.806h1.65a3.17 3.17 0 0 1-.55 1.511q-.465.665-1.23 1.045-.78.381-1.8.381m7.94.017q-.84 0-1.5-.307c-.45-.208-.8-.509-1.07-.903-.25-.394-.38-.877-.38-1.449 0-.492.09-.898.28-1.216s.45-.57.77-.756q.48-.278 1.08-.42c.4-.095.8-.167 1.21-.216.53-.06.95-.11 1.28-.148.32-.041.56-.108.71-.198s.22-.239.22-.444v-.039q0-.745-.42-1.154c-.28-.273-.69-.409-1.24-.409q-.855 0-1.35.381c-.33.25-.55.528-.68.835l-1.6-.364c.19-.53.47-.958.83-1.284.37-.329.79-.568 1.27-.716.48-.151.98-.227 1.51-.227q.525 0 1.11.125c.39.08.76.227 1.1.443q.51.324.84.926.33.597.33 1.552V314h-1.66v-1.193h-.06c-.11.22-.28.435-.5.648q-.33.318-.84.528c-.35.14-.76.21-1.24.21m.37-1.363q.705 0 1.2-.279c.34-.185.59-.428.77-.727.18-.303.26-.627.26-.972v-1.125c-.06.061-.17.118-.35.171-.17.049-.36.093-.58.13l-.64.097c-.21.027-.39.049-.53.068q-.495.063-.9.21c-.27.099-.49.241-.65.427q-.24.272-.24.727c0 .42.16.738.47.954.31.212.71.319 1.19.319m10.27-7.557v1.363h-4.77v-1.363zm-3.49-2.091h1.7v8.256q0 .493.15.744c.1.163.22.274.38.335.16.057.33.085.52.085.13 0 .25-.009.35-.028q.165-.028.24-.046l.31 1.404q-.15.057-.42.113a3.3 3.3 0 0 1-.68.069c-.45.007-.87-.072-1.25-.239-.39-.167-.7-.424-.94-.773q-.36-.523-.36-1.312zm5.37 10.818v-8.727h1.7V314zm.86-10.074c-.3 0-.55-.098-.76-.295a.964.964 0 0 1 0-1.432c.21-.201.46-.301.76-.301q.435 0 .75.301c.22.197.32.435.32.716 0 .276-.1.515-.32.716q-.315.295-.75.295m6.8 10.25c-.82 0-1.53-.187-2.14-.562s-1.09-.9-1.42-1.574q-.51-1.011-.51-2.364 0-1.358.51-2.375c.33-.678.81-1.204 1.42-1.579s1.32-.563 2.14-.563 1.53.188 2.14.563 1.09.901 1.42 1.579q.51 1.017.51 2.375 0 1.353-.51 2.364a3.75 3.75 0 0 1-1.42 1.574c-.61.375-1.32.562-2.14.562m.01-1.426c.53 0 .97-.14 1.31-.42q.525-.421.78-1.12c.17-.466.25-.979.25-1.54 0-.556-.08-1.068-.25-1.534a2.53 2.53 0 0 0-.78-1.13c-.34-.284-.78-.426-1.31-.426-.54 0-.98.142-1.33.426q-.525.426-.78 1.13c-.17.466-.25.978-.25 1.534 0 .561.08 1.074.25 1.54q.255.699.78 1.12c.35.28.79.42 1.33.42m7.65-3.932V314h-1.7v-8.727h1.64v1.42h.1c.2-.462.52-.833.95-1.113.43-.281.97-.421 1.63-.421q.885 0 1.56.375c.45.246.79.614 1.04 1.102s.37 1.093.37 1.813V314h-1.7v-5.347c0-.632-.16-1.126-.49-1.483-.33-.359-.79-.539-1.36-.539q-.6 0-1.05.255c-.31.171-.55.421-.73.75-.17.326-.26.72-.26 1.182m-141.97 24.375q-.825 0-1.5-.307a2.5 2.5 0 0 1-1.06-.903q-.39-.591-.39-1.449c0-.492.1-.898.29-1.216s.44-.57.76-.756q.495-.278 1.08-.42c.4-.095.81-.167 1.22-.216l1.27-.148c.33-.041.56-.108.71-.198s.22-.239.22-.444v-.039q0-.745-.42-1.154c-.27-.273-.69-.409-1.24-.409q-.855 0-1.35.381c-.32.25-.55.528-.67.835l-1.6-.364c.19-.53.47-.958.83-1.284.37-.329.79-.568 1.27-.716.47-.151.98-.227 1.5-.227q.525 0 1.11.125c.39.08.76.227 1.1.443.35.216.63.525.85.926q.33.597.33 1.552V333h-1.66v-1.193h-.07c-.11.22-.27.435-.49.648-.22.212-.5.388-.85.528-.34.14-.76.21-1.24.21m.37-1.363c.47 0 .87-.093 1.21-.279a1.95 1.95 0 0 0 1.03-1.699v-1.125c-.06.061-.18.118-.35.171a5 5 0 0 1-.59.13c-.22.034-.43.067-.64.097l-.52.068c-.33.042-.63.112-.91.21-.26.099-.48.241-.64.427q-.24.272-.24.727c0 .42.15.738.46.954.31.212.71.319 1.19.319m7.9-4.012V333h-1.7v-8.727h1.63v1.42h.11c.2-.462.52-.833.94-1.113.44-.281.98-.421 1.63-.421.6 0 1.12.125 1.57.375.44.246.79.614 1.04 1.102.24.489.37 1.093.37 1.813V333h-1.7v-5.347c0-.632-.17-1.126-.5-1.483-.33-.359-.78-.539-1.36-.539q-.585 0-1.05.255-.45.257-.72.75c-.17.326-.26.72-.26 1.182m11.13 5.352q-1.05 0-1.89-.539c-.54-.364-.98-.881-1.29-1.551-.31-.675-.47-1.483-.47-2.427 0-.943.16-1.75.47-2.42.32-.671.76-1.184 1.31-1.54s1.18-.534 1.88-.534c.54 0 .98.091 1.31.273.33.178.59.386.77.625.19.238.33.449.43.631h.11v-4.324h1.69V333h-1.65v-1.358h-.15c-.1.186-.25.398-.44.636q-.285.358-.78.625c-.34.178-.77.267-1.3.267m.38-1.448c.48 0 .9-.129 1.23-.387.35-.261.6-.623.78-1.085s.26-1 .26-1.614c0-.606-.08-1.136-.26-1.591a2.35 2.35 0 0 0-.76-1.062c-.34-.254-.76-.381-1.25-.381-.52 0-.94.133-1.28.398q-.51.398-.78 1.085c-.17.459-.25.976-.25 1.551 0 .584.09 1.108.26 1.574s.43.835.77 1.108c.35.269.77.404 1.28.404m14.68-7.449v1.363h-4.77v-1.363zm-3.49-2.091h1.7v8.256q0 .493.15.744a.72.72 0 0 0 .38.335q.24.085.51.085.21 0 .36-.028l.24-.046.31 1.404q-.15.057-.42.113c-.19.042-.41.065-.69.069-.44.007-.86-.072-1.25-.239a2.17 2.17 0 0 1-.93-.773q-.36-.523-.36-1.312zm5.37 10.818v-8.727h1.64v1.386h.09q.24-.705.84-1.108c.41-.273.86-.409 1.38-.409a8 8 0 0 1 .72.04v1.625c-.07-.019-.19-.04-.37-.063a3.4 3.4 0 0 0-.52-.039c-.4 0-.76.085-1.07.255a1.9 1.9 0 0 0-.74.699q-.27.444-.27 1.011V333zm8.6.193q-.825 0-1.5-.307a2.5 2.5 0 0 1-1.06-.903q-.39-.591-.39-1.449c0-.492.1-.898.28-1.216.19-.318.45-.57.77-.756q.48-.278 1.08-.42c.4-.095.8-.167 1.22-.216l1.27-.148c.33-.041.56-.108.71-.198s.22-.239.22-.444v-.039q0-.745-.42-1.154c-.28-.273-.69-.409-1.24-.409q-.855 0-1.35.381c-.33.25-.55.528-.68.835l-1.59-.364c.19-.53.46-.958.83-1.284.36-.329.79-.568 1.26-.716.48-.151.98-.227 1.51-.227q.525 0 1.11.125c.39.08.76.227 1.1.443s.63.525.85.926q.33.597.33 1.552V333h-1.66v-1.193h-.07c-.11.22-.28.435-.5.648q-.33.318-.84.528c-.35.14-.76.21-1.24.21m.37-1.363q.705 0 1.2-.279c.34-.185.6-.428.77-.727q.27-.454.27-.972v-1.125c-.06.061-.18.118-.35.171-.18.049-.37.093-.59.13-.22.034-.43.067-.64.097l-.53.068a4.3 4.3 0 0 0-.9.21c-.27.099-.48.241-.65.427-.16.181-.23.424-.23.727 0 .42.15.738.46.954.31.212.71.319 1.19.319m6.2 1.17v-8.727h1.7V333zm.86-10.074c-.3 0-.55-.098-.76-.295a.964.964 0 0 1 0-1.432c.21-.201.46-.301.76-.301q.435 0 .75.301a.964.964 0 0 1 0 1.432q-.315.295-.75.295m4.82 4.892V333h-1.7v-8.727h1.63v1.42h.11c.2-.462.52-.833.95-1.113.43-.281.97-.421 1.63-.421q.885 0 1.56.375c.45.246.79.614 1.04 1.102.24.489.37 1.093.37 1.813V333h-1.7v-5.347c0-.632-.17-1.126-.5-1.483q-.495-.539-1.35-.539-.6 0-1.05.255c-.31.171-.55.421-.73.75-.17.326-.26.72-.26 1.182m11.63 5.358q-1.29 0-2.22-.551a3.76 3.76 0 0 1-1.44-1.563c-.33-.674-.5-1.464-.5-2.369 0-.894.17-1.682.5-2.363q.51-1.023 1.41-1.597.915-.574 2.13-.574c.49 0 .97.082 1.43.244.46.163.88.419 1.24.767q.555.524.87 1.358c.22.553.32 1.226.32 2.017v.603h-6.94v-1.273h5.28c0-.447-.09-.843-.28-1.187a2 2 0 0 0-.76-.824 2.16 2.16 0 0 0-1.15-.302c-.48 0-.89.118-1.25.353-.35.231-.63.534-.82.909-.19.371-.28.774-.28 1.21v.994q0 .876.3 1.489.315.614.87.938c.37.212.81.318 1.3.318.33 0 .62-.046.88-.137q.405-.141.69-.42c.2-.186.34-.415.45-.688l1.6.29a2.95 2.95 0 0 1-.69 1.244c-.33.353-.74.627-1.24.824-.5.194-1.07.29-1.7.29m9.39 0q-1.29 0-2.22-.551a3.76 3.76 0 0 1-1.44-1.563c-.33-.674-.5-1.464-.5-2.369 0-.894.17-1.682.5-2.363q.51-1.023 1.41-1.597.915-.574 2.13-.574c.49 0 .97.082 1.43.244.46.163.88.419 1.24.767q.555.524.87 1.358c.22.553.32 1.226.32 2.017v.603h-6.94v-1.273h5.28c0-.447-.09-.843-.28-1.187a2 2 0 0 0-.76-.824 2.16 2.16 0 0 0-1.15-.302c-.48 0-.89.118-1.25.353-.35.231-.63.534-.82.909-.19.371-.28.774-.28 1.21v.994q0 .876.3 1.489.315.614.87.938c.37.212.81.318 1.3.318.33 0 .62-.046.89-.137a1.86 1.86 0 0 0 1.13-1.108l1.6.29c-.12.474-.36.888-.69 1.244-.33.353-.74.627-1.24.824-.5.194-1.07.29-1.7.29m12.17-6.773-1.54.273a2 2 0 0 0-.31-.562 1.5 1.5 0 0 0-.56-.438c-.23-.114-.52-.17-.88-.17q-.72 0-1.2.324-.48.318-.48.823c0 .292.1.527.32.705s.56.324 1.04.437l1.39.319q1.2.277 1.8.858c.39.386.59.888.59 1.505 0 .523-.15.989-.46 1.398-.3.405-.72.723-1.25.955q-.81.346-1.86.346c-.98 0-1.78-.208-2.39-.625q-.93-.63-1.14-1.79l1.64-.25q.165.642.63.972c.32.216.74.324 1.25.324.55 0 1-.116 1.33-.347.34-.235.5-.521.5-.858a.9.9 0 0 0-.3-.687q-.3-.279-.93-.421l-1.48-.324q-1.215-.278-1.8-.886c-.39-.405-.58-.918-.58-1.54 0-.515.14-.966.43-1.352s.68-.687 1.19-.903c.51-.22 1.09-.33 1.75-.33q1.41 0 2.22.614.81.608 1.08 1.63m3.73 1.415V333h-1.69v-11.636h1.67v4.329h.11c.2-.47.52-.843.94-1.119.42-.277.97-.415 1.64-.415.6 0 1.13.123 1.57.369q.675.37 1.05 1.103c.25.485.37 1.091.37 1.818V333h-1.7v-5.347c0-.64-.16-1.136-.49-1.488q-.495-.534-1.38-.534c-.4 0-.76.085-1.07.255q-.48.257-.75.75-.27.489-.27 1.182m7.93 5.182v-8.727h1.7V333zm.86-10.074c-.3 0-.55-.098-.76-.295a.964.964 0 0 1 0-1.432c.21-.201.46-.301.76-.301.29 0 .55.1.75.301.22.197.32.435.32.716 0 .276-.1.515-.32.716-.2.197-.46.295-.75.295m3.12 13.347v-12h1.66v1.415h.15c.09-.182.24-.393.42-.631.19-.239.45-.447.77-.625.33-.182.77-.273 1.31-.273.71 0 1.33.178 1.89.534.55.356.98.869 1.3 1.54q.48 1.005.48 2.42t-.48 2.427q-.465 1.005-1.29 1.551c-.55.36-1.18.539-1.88.539-.53 0-.97-.089-1.3-.267-.34-.178-.6-.386-.79-.625-.19-.238-.33-.45-.43-.636h-.11v4.631zm1.67-7.637q0 .921.27 1.614c.17.462.43.824.77 1.085.34.258.75.387 1.24.387.51 0 .93-.135 1.27-.404.34-.273.6-.642.77-1.108q.27-.699.27-1.574a4.4 4.4 0 0 0-.26-1.551c-.17-.458-.43-.82-.77-1.085s-.77-.398-1.28-.398c-.49 0-.91.127-1.25.381s-.6.608-.77 1.062-.26.985-.26 1.591m-295.61-27.272h1.76v7.653q0 1.221-.57 2.165c-.38.625-.92 1.117-1.61 1.477-.7.356-1.51.534-2.44.534q-1.395 0-2.43-.534-1.05-.54-1.62-1.477-.57-.944-.57-2.165v-7.653h1.75v7.511c0 .527.12.994.35 1.403.24.41.57.731 1 .966.42.231.93.347 1.52.347q.885 0 1.53-.347c.43-.235.76-.556.98-.966.24-.409.35-.876.35-1.403zm5.88 6.454V313h-1.7v-8.727h1.63v1.42h.11c.2-.462.51-.833.94-1.113.43-.281.98-.421 1.63-.421q.9 0 1.56.375c.45.246.8.614 1.04 1.102.25.489.37 1.093.37 1.813V313h-1.7v-5.347c0-.632-.16-1.126-.49-1.483-.33-.359-.78-.539-1.36-.539q-.585 0-1.05.255-.45.257-.72.75c-.18.326-.26.72-.26 1.182m11.13 5.352c-.71 0-1.33-.179-1.89-.539q-.825-.546-1.29-1.551c-.31-.675-.47-1.483-.47-2.427 0-.943.16-1.75.47-2.42.32-.671.76-1.184 1.31-1.54s1.18-.534 1.88-.534c.54 0 .98.091 1.31.273.33.178.59.386.77.625.18.238.33.449.43.631h.1v-4.324h1.7V313h-1.66v-1.358h-.14c-.1.186-.25.398-.44.636-.19.239-.45.447-.79.625q-.495.267-1.29.267m.37-1.448c.49 0 .9-.129 1.24-.387.34-.261.6-.623.77-1.085q.27-.693.27-1.614c0-.606-.09-1.136-.26-1.591a2.3 2.3 0 0 0-.77-1.062c-.33-.254-.75-.381-1.25-.381-.51 0-.93.133-1.27.398-.35.265-.6.627-.78 1.085-.17.459-.25.976-.25 1.551 0 .584.08 1.108.26 1.574.17.466.43.835.77 1.108.35.269.77.404 1.27.404m10.14 1.454q-1.29 0-2.22-.551a3.76 3.76 0 0 1-1.44-1.563c-.33-.674-.5-1.464-.5-2.369 0-.894.17-1.682.5-2.363q.51-1.023 1.41-1.597.915-.574 2.13-.574c.49 0 .97.082 1.43.244.46.163.88.419 1.25.767.36.349.65.802.86 1.358.22.553.32 1.226.32 2.017v.603h-6.93v-1.273h5.27q0-.67-.27-1.187a2.1 2.1 0 0 0-.77-.824 2.16 2.16 0 0 0-1.15-.302c-.48 0-.89.118-1.25.353-.35.231-.62.534-.82.909-.19.371-.28.774-.28 1.21v.994q0 .876.3 1.489.315.614.87.938c.38.212.81.318 1.31.318.32 0 .61-.046.88-.137a1.86 1.86 0 0 0 1.13-1.108l1.6.29c-.12.474-.36.888-.69 1.244-.33.353-.74.627-1.24.824-.5.194-1.07.29-1.7.29m5.63-.176v-8.727h1.64v1.386h.09q.24-.705.84-1.108.615-.41 1.38-.409a8 8 0 0 1 .72.04v1.625c-.07-.019-.19-.04-.37-.063a3.4 3.4 0 0 0-.52-.039c-.4 0-.76.085-1.07.255a1.9 1.9 0 0 0-.74.699q-.27.444-.27 1.011V313zm9.48 3.455c-.69 0-1.28-.091-1.78-.273s-.91-.423-1.22-.722a3 3 0 0 1-.71-.983l1.46-.602c.11.167.24.343.41.528.18.19.41.351.71.483.3.133.68.199 1.15.199.65 0 1.18-.157 1.6-.471q.63-.466.63-1.489v-1.716h-.11c-.1.186-.25.392-.44.619-.19.228-.45.425-.79.591-.33.167-.76.25-1.3.25q-1.035 0-1.86-.483c-.55-.325-.99-.805-1.31-1.437-.32-.637-.47-1.419-.47-2.347s.15-1.723.47-2.386c.31-.663.75-1.171 1.3-1.523a3.4 3.4 0 0 1 1.88-.534c.55 0 .98.091 1.32.273q.495.267.78.625c.18.238.33.449.43.631h.13v-1.415h1.66v8.92c0 .75-.17 1.366-.52 1.847a3.07 3.07 0 0 1-1.42 1.068c-.59.231-1.25.347-2 .347m-.01-4.995c.49 0 .9-.113 1.24-.341.34-.231.59-.56.77-.988q.27-.648.27-1.551 0-.882-.27-1.552a2.3 2.3 0 0 0-.76-1.045c-.34-.254-.76-.381-1.25-.381-.51 0-.94.133-1.28.398-.34.261-.6.617-.77 1.068s-.26.955-.26 1.512c0 .572.09 1.073.26 1.505.18.432.43.769.78 1.012.34.242.76.363 1.27.363m6.23 1.54v-8.727h1.64v1.386h.09q.24-.705.84-1.108.615-.41 1.38-.409a8 8 0 0 1 .72.04v1.625q-.105-.029-.36-.063a4 4 0 0 0-.53-.039c-.4 0-.75.085-1.07.255a1.9 1.9 0 0 0-.74.699q-.27.444-.27 1.011V313zm8.6.193q-.825 0-1.5-.307a2.55 2.55 0 0 1-1.06-.903q-.39-.591-.39-1.449c0-.492.1-.898.29-1.216s.44-.57.77-.756c.32-.185.68-.325 1.07-.42.4-.095.81-.167 1.22-.216l1.27-.148c.33-.041.57-.108.71-.198.15-.091.23-.239.23-.444v-.039c0-.497-.14-.881-.43-1.154q-.405-.41-1.23-.409c-.58 0-1.03.127-1.36.381-.32.25-.55.528-.67.835l-1.6-.364c.19-.53.47-.958.83-1.284.37-.329.79-.568 1.27-.716a5 5 0 0 1 1.5-.227q.525 0 1.11.125c.4.08.76.227 1.1.443.35.216.63.525.85.926q.33.597.33 1.552V313h-1.66v-1.193h-.07c-.11.22-.27.435-.49.648-.22.212-.5.388-.85.528-.34.14-.76.21-1.24.21m.37-1.363c.47 0 .87-.093 1.21-.279a1.95 1.95 0 0 0 1.03-1.699v-1.125c-.06.061-.18.118-.35.171a5 5 0 0 1-.59.13c-.22.034-.43.067-.64.097l-.52.068q-.495.063-.9.21c-.27.099-.49.241-.65.427q-.24.272-.24.727c0 .42.15.738.46.954.32.212.71.319 1.19.319m9.47 1.34q-1.05 0-1.89-.539-.825-.546-1.29-1.551c-.31-.675-.47-1.483-.47-2.427 0-.943.16-1.75.47-2.42.32-.671.76-1.184 1.31-1.54s1.18-.534 1.88-.534c.54 0 .98.091 1.31.273.33.178.59.386.77.625.19.238.33.449.43.631h.1v-4.324h1.7V313h-1.66v-1.358h-.14c-.1.186-.25.398-.44.636q-.285.358-.78.625c-.34.178-.77.267-1.3.267m.37-1.448c.49 0 .91-.129 1.24-.387q.51-.392.78-1.085c.17-.462.26-1 .26-1.614 0-.606-.08-1.136-.26-1.591a2.3 2.3 0 0 0-.77-1.062c-.33-.254-.75-.381-1.25-.381-.51 0-.93.133-1.27.398q-.51.398-.78 1.085c-.17.459-.25.976-.25 1.551 0 .584.09 1.108.26 1.574s.43.835.77 1.108c.35.269.77.404 1.27.404m11.91-2.341v-5.108h1.7V313h-1.67v-1.511h-.09c-.2.466-.52.854-.97 1.164-.44.307-.98.461-1.64.461-.56 0-1.05-.123-1.49-.37-.42-.25-.76-.619-1.01-1.108q-.36-.732-.36-1.812v-5.551h1.7v5.346c0 .595.16 1.068.49 1.421q.495.528 1.29.528c.31 0 .63-.079.94-.238.32-.16.59-.4.79-.722.22-.322.32-.731.32-1.227m6.52 3.812q-.825 0-1.5-.307a2.55 2.55 0 0 1-1.06-.903q-.39-.591-.39-1.449c0-.492.1-.898.29-1.216s.44-.57.77-.756q.48-.278 1.08-.42c.39-.095.8-.167 1.21-.216l1.27-.148c.33-.041.57-.108.71-.198.15-.091.23-.239.23-.444v-.039q0-.745-.42-1.154c-.28-.273-.69-.409-1.24-.409-.58 0-1.03.127-1.36.381-.32.25-.55.528-.67.835l-1.6-.364c.19-.53.47-.958.83-1.284.37-.329.79-.568 1.27-.716a5 5 0 0 1 1.5-.227q.525 0 1.11.125c.4.08.76.227 1.1.443.35.216.63.525.85.926q.33.597.33 1.552V313h-1.66v-1.193h-.07c-.11.22-.27.435-.49.648-.22.212-.5.388-.85.528-.34.14-.76.21-1.24.21m.37-1.363c.47 0 .87-.093 1.21-.279a1.95 1.95 0 0 0 1.03-1.699v-1.125c-.06.061-.18.118-.35.171a5 5 0 0 1-.59.13c-.22.034-.43.067-.64.097l-.52.068q-.495.063-.9.21c-.27.099-.49.241-.65.427q-.24.272-.24.727c0 .42.15.738.47.954.31.212.7.319 1.18.319m10.28-7.557v1.363h-4.77v-1.363zm-3.49-2.091h1.7v8.256q0 .493.15.744a.72.72 0 0 0 .38.335c.15.057.33.085.51.085q.21 0 .36-.028l.24-.046.31 1.404q-.15.057-.42.113c-.19.042-.41.065-.69.069-.44.007-.86-.072-1.25-.239a2.17 2.17 0 0 1-.93-.773q-.36-.523-.36-1.312zm9.03 10.994q-1.29 0-2.22-.551a3.8 3.8 0 0 1-1.43-1.563c-.33-.674-.5-1.464-.5-2.369 0-.894.17-1.682.5-2.363q.51-1.023 1.41-1.597c.61-.383 1.31-.574 2.12-.574.5 0 .97.082 1.44.244a3.5 3.5 0 0 1 1.24.767q.555.524.87 1.358c.21.553.32 1.226.32 2.017v.603h-6.94v-1.273h5.27q0-.67-.27-1.187a2.05 2.05 0 0 0-.77-.824q-.48-.302-1.14-.302c-.48 0-.9.118-1.25.353-.36.231-.63.534-.82.909-.19.371-.29.774-.29 1.21v.994c0 .584.11 1.08.31 1.489q.315.614.87.938c.37.212.8.318 1.3.318.32 0 .62-.046.88-.137q.405-.141.69-.42c.19-.186.34-.415.44-.688l1.61.29a2.95 2.95 0 0 1-.69 1.244c-.33.353-.75.627-1.25.824-.49.194-1.06.29-1.7.29m-109.9 22.097v-12h1.66v1.415h.14c.1-.182.24-.393.43-.631.18-.239.44-.447.77-.625.33-.182.77-.273 1.31-.273q1.05 0 1.89.534c.55.356.98.869 1.3 1.54.31.67.47 1.477.47 2.42 0 .944-.15 1.752-.47 2.427q-.465 1.005-1.29 1.551c-.55.36-1.18.539-1.88.539-.53 0-.97-.089-1.31-.267a2.5 2.5 0 0 1-.78-.625c-.19-.238-.33-.45-.44-.636h-.1v4.631zm1.67-7.637c0 .614.09 1.152.26 1.614q.27.693.78 1.085c.33.258.75.387 1.24.387.5 0 .93-.135 1.27-.404.34-.273.6-.642.77-1.108q.27-.699.27-1.574a4.4 4.4 0 0 0-.26-1.551q-.255-.687-.78-1.085c-.34-.265-.76-.398-1.27-.398-.5 0-.91.127-1.25.381s-.6.608-.77 1.062c-.18.455-.26.985-.26 1.591m8.21 4.364v-8.727h1.64v1.386h.09q.24-.705.84-1.108c.41-.273.86-.409 1.38-.409a8 8 0 0 1 .72.04v1.625c-.07-.019-.19-.04-.37-.063a3.4 3.4 0 0 0-.52-.039c-.4 0-.76.085-1.07.255a1.9 1.9 0 0 0-.74.699q-.27.444-.27 1.011V332zm9.5.176c-.82 0-1.53-.187-2.14-.562s-1.08-.9-1.42-1.574q-.51-1.011-.51-2.364 0-1.358.51-2.375c.34-.678.81-1.204 1.42-1.579s1.32-.563 2.14-.563 1.53.188 2.14.563 1.09.901 1.42 1.579q.51 1.017.51 2.375 0 1.353-.51 2.364a3.75 3.75 0 0 1-1.42 1.574c-.61.375-1.32.562-2.14.562m.01-1.426q.795 0 1.32-.42c.34-.281.6-.654.77-1.12s.25-.979.25-1.54c0-.556-.08-1.068-.25-1.534a2.6 2.6 0 0 0-.77-1.13q-.525-.426-1.32-.426c-.54 0-.98.142-1.33.426q-.525.426-.78 1.13c-.17.466-.25.978-.25 1.534 0 .561.08 1.074.25 1.54q.255.699.78 1.12c.35.28.79.42 1.33.42m9.61 4.705c-.69 0-1.28-.091-1.78-.273s-.91-.423-1.22-.722a3 3 0 0 1-.71-.983l1.46-.602c.11.167.24.343.41.528.18.19.41.351.71.483.3.133.68.199 1.15.199.65 0 1.18-.157 1.6-.471q.63-.466.63-1.489v-1.716h-.11c-.1.186-.25.392-.44.619-.19.228-.45.425-.79.591-.33.167-.76.25-1.3.25q-1.035 0-1.86-.483c-.55-.325-.99-.805-1.31-1.437-.32-.637-.47-1.419-.47-2.347s.15-1.723.47-2.386c.31-.663.75-1.171 1.3-1.523a3.4 3.4 0 0 1 1.88-.534c.55 0 .98.091 1.32.273q.495.267.78.625c.18.238.33.449.43.631h.13v-1.415h1.66v8.92c0 .75-.17 1.366-.52 1.847a3.07 3.07 0 0 1-1.42 1.068c-.59.231-1.25.347-2 .347m-.01-4.995c.49 0 .9-.113 1.24-.341.34-.231.59-.56.77-.988q.27-.648.27-1.551 0-.882-.27-1.552a2.3 2.3 0 0 0-.76-1.045c-.34-.254-.76-.381-1.25-.381-.51 0-.94.133-1.28.398-.34.261-.6.617-.77 1.068s-.26.955-.26 1.512c0 .572.09 1.073.26 1.505.18.432.43.769.78 1.012.34.242.76.363 1.27.363m6.23 1.54v-8.727h1.64v1.386h.09q.24-.705.84-1.108.615-.41 1.38-.409a8 8 0 0 1 .72.04v1.625q-.105-.029-.36-.063a4 4 0 0 0-.53-.039c-.4 0-.75.085-1.07.255a1.9 1.9 0 0 0-.74.699q-.27.444-.27 1.011V332zm8.6.193q-.825 0-1.5-.307a2.55 2.55 0 0 1-1.06-.903q-.39-.591-.39-1.449c0-.492.1-.898.29-1.216s.44-.57.77-.756c.32-.185.68-.325 1.07-.42.4-.095.81-.167 1.22-.216l1.27-.148c.33-.041.57-.108.71-.198.15-.091.23-.239.23-.444v-.039c0-.497-.14-.881-.43-1.154q-.405-.41-1.23-.409c-.58 0-1.03.127-1.36.381-.32.25-.55.528-.67.835l-1.6-.364c.19-.53.47-.958.83-1.284.37-.329.79-.568 1.27-.716a5 5 0 0 1 1.5-.227q.525 0 1.11.125c.4.08.76.227 1.1.443.35.216.63.525.85.926q.33.597.33 1.552V332h-1.66v-1.193h-.07c-.11.22-.27.435-.49.648-.22.212-.5.388-.85.528-.34.14-.76.21-1.24.21m.37-1.363c.47 0 .87-.093 1.21-.279a1.95 1.95 0 0 0 1.03-1.699v-1.125c-.06.061-.18.118-.35.171a5 5 0 0 1-.59.13c-.22.034-.43.067-.64.097l-.52.068q-.495.063-.9.21c-.27.099-.49.241-.65.427q-.24.272-.24.727c0 .42.15.738.46.954.32.212.71.319 1.19.319m6.2 1.17v-8.727h1.63v1.42h.11c.18-.481.48-.856.89-1.125.42-.273.91-.409 1.49-.409s1.07.136 1.46.409c.4.273.69.648.88 1.125h.09c.21-.466.54-.837 1-1.113q.675-.421 1.62-.421c.79 0 1.44.248 1.94.744.5.497.76 1.245.76 2.245V332h-1.7v-5.693c0-.591-.16-1.019-.49-1.284a1.74 1.74 0 0 0-1.15-.398q-.825 0-1.29.511c-.31.337-.46.771-.46 1.302V332h-1.69v-5.801q0-.71-.45-1.142c-.29-.288-.68-.432-1.15-.432-.32 0-.62.085-.89.256a1.8 1.8 0 0 0-.65.699c-.17.299-.25.645-.25 1.039V332zm20.68-6.597-1.54.273a1.7 1.7 0 0 0-.3-.562 1.6 1.6 0 0 0-.56-.438c-.24-.114-.53-.17-.88-.17-.48 0-.88.108-1.21.324q-.48.318-.48.823 0 .438.33.705c.21.178.56.324 1.04.437l1.39.319c.8.185 1.4.471 1.79.858.4.386.59.888.59 1.505q0 .784-.45 1.398-.45.607-1.26.955c-.53.231-1.15.346-1.85.346q-1.47 0-2.4-.625c-.61-.42-.99-1.017-1.13-1.79l1.64-.25q.15.642.63.972c.32.216.73.324 1.24.324.56 0 1.01-.116 1.34-.347.33-.235.5-.521.5-.858 0-.272-.1-.502-.31-.687-.2-.186-.51-.326-.92-.421l-1.48-.324c-.82-.185-1.42-.481-1.81-.886-.38-.405-.58-.918-.58-1.54 0-.515.15-.966.43-1.352q.435-.579 1.2-.903.765-.33 1.74-.33c.95 0 1.69.205 2.23.614.54.405.9.949 1.07 1.63m-648.449-22.039h1.762v7.653q0 1.221-.574 2.165a4 4 0 0 1-1.614 1.477q-1.04.534-2.437.534-1.392 0-2.432-.534a4 4 0 0 1-1.614-1.477q-.574-.944-.574-2.165v-7.653h1.756v7.511q0 .79.347 1.403.352.614.994.966.642.347 1.523.347.886 0 1.528-.347.648-.352.989-.966.346-.613.346-1.403zm5.877 6.454V315h-1.699v-8.727h1.631v1.42h.108q.3-.693.943-1.113.648-.421 1.63-.421.892 0 1.563.375.67.37 1.04 1.102.369.733.369 1.813V315h-1.699v-5.347q0-.948-.494-1.483-.495-.539-1.358-.539-.59 0-1.051.255a1.85 1.85 0 0 0-.722.75q-.261.489-.261 1.182m8 5.182v-11.636h1.699v4.324h.102q.147-.274.426-.631.279-.358.773-.625.494-.273 1.307-.273 1.056 0 1.886.534t1.301 1.54q.477 1.005.477 2.42t-.471 2.427q-.472 1.005-1.296 1.551-.824.54-1.88.539-.796 0-1.301-.267a2.5 2.5 0 0 1-.785-.625 5 5 0 0 1-.437-.636h-.142V315zm1.665-4.364q0 .921.267 1.614t.772 1.085q.505.387 1.239.387.762 0 1.273-.404.511-.41.772-1.108.267-.699.267-1.574a4.4 4.4 0 0 0-.261-1.551q-.255-.687-.773-1.085-.512-.398-1.278-.398-.738 0-1.25.381-.506.381-.767 1.062-.261.682-.261 1.591m8.214 4.364v-8.727h1.699V315zm.858-10.074a1.08 1.08 0 0 1-.761-.295.96.96 0 0 1-.313-.716q0-.421.313-.716.318-.301.761-.301.442 0 .756.301a.94.94 0 0 1 .318.716.95.95 0 0 1-.318.716 1.06 1.06 0 0 1-.756.295m5.666 10.267a3.6 3.6 0 0 1-1.5-.307 2.5 2.5 0 0 1-1.062-.903q-.387-.591-.387-1.449 0-.739.284-1.216.285-.477.767-.756a4 4 0 0 1 1.08-.42 11 11 0 0 1 1.216-.216l1.273-.148q.488-.062.71-.198.221-.137.221-.444v-.039q0-.745-.42-1.154-.415-.41-1.239-.409-.858 0-1.352.381-.489.375-.676.835l-1.597-.364q.285-.795.83-1.284.551-.494 1.267-.716a5 5 0 0 1 1.506-.227q.522 0 1.108.125.59.12 1.102.443.518.324.846.926.33.597.33 1.552V315h-1.659v-1.193h-.068q-.165.33-.495.648a2.6 2.6 0 0 1-.846.528q-.518.21-1.239.21m.37-1.363q.704 0 1.204-.279.506-.278.767-.727.267-.454.267-.972v-1.125q-.09.091-.352.171a5 5 0 0 1-.585.13q-.33.052-.642.097l-.523.068q-.495.063-.904.21a1.56 1.56 0 0 0-.647.427q-.239.272-.239.727 0 .63.466.954.466.319 1.188.319m12.74-5.427-1.54.273a1.8 1.8 0 0 0-.307-.562 1.5 1.5 0 0 0-.557-.438q-.352-.17-.881-.17-.721 0-1.204.324-.483.318-.483.823 0 .438.324.705t1.045.437l1.387.319q1.204.277 1.795.858.591.58.591 1.505 0 .784-.455 1.398-.448.607-1.255.955-.802.346-1.858.346-1.466 0-2.392-.625-.926-.63-1.137-1.79l1.642-.25q.154.642.631.972.477.324 1.244.324.835 0 1.336-.347.5-.353.5-.858a.9.9 0 0 0-.307-.687q-.302-.279-.926-.421l-1.478-.324q-1.221-.278-1.806-.886-.58-.607-.58-1.54a2.2 2.2 0 0 1 .432-1.352q.432-.579 1.193-.903.762-.33 1.744-.33 1.415 0 2.228.614.812.608 1.074 1.63m5.799 6.773q-1.29 0-2.221-.551a3.73 3.73 0 0 1-1.432-1.563q-.5-1.011-.5-2.369 0-1.341.5-2.363a3.9 3.9 0 0 1 1.409-1.597q.909-.574 2.125-.574a4.3 4.3 0 0 1 1.432.244q.693.245 1.244.767.552.524.869 1.358.32.83.319 2.017v.603h-6.938v-1.273h5.273q0-.67-.273-1.187a2.05 2.05 0 0 0-.767-.824q-.488-.302-1.148-.302-.716 0-1.25.353a2.36 2.36 0 0 0-.818.909 2.6 2.6 0 0 0-.284 1.21v.994q0 .876.307 1.489.312.614.869.938.557.318 1.301.318a2.7 2.7 0 0 0 .881-.137q.397-.141.688-.42a1.84 1.84 0 0 0 .443-.688l1.608.29q-.193.71-.694 1.244a3.35 3.35 0 0 1-1.244.824q-.744.29-1.699.29m8.897-.006q-1.057 0-1.887-.539-.824-.546-1.295-1.551-.466-1.012-.466-2.427t.471-2.42q.478-1.006 1.307-1.54a3.4 3.4 0 0 1 1.881-.534q.813 0 1.307.273.5.267.773.625.278.357.431.631h.103v-4.324h1.698V315h-1.659v-1.358h-.142q-.153.279-.443.636a2.5 2.5 0 0 1-.784.625q-.5.267-1.295.267m.375-1.448q.732 0 1.238-.387.512-.392.773-1.085.267-.693.267-1.614 0-.909-.261-1.591-.262-.681-.767-1.062-.506-.381-1.25-.381-.768 0-1.279.398t-.773 1.085q-.255.689-.255 1.551 0 .876.261 1.574t.773 1.108q.517.404 1.273.404m13.147 1.471a3.6 3.6 0 0 1-1.5-.307 2.5 2.5 0 0 1-1.062-.903q-.387-.591-.387-1.449 0-.739.285-1.216.284-.477.767-.756a4 4 0 0 1 1.079-.42 11 11 0 0 1 1.216-.216l1.273-.148q.489-.062.71-.198.222-.137.222-.444v-.039q0-.745-.421-1.154-.414-.41-1.239-.409-.857 0-1.352.381-.489.375-.676.835l-1.596-.364q.283-.795.829-1.284.551-.494 1.267-.716a5 5 0 0 1 1.506-.227q.523 0 1.108.125.59.12 1.102.443.517.324.847.926.329.597.329 1.552V315h-1.659v-1.193h-.068q-.165.33-.494.648-.33.318-.847.528-.518.21-1.239.21m.37-1.363q.704 0 1.204-.279.506-.278.767-.727.267-.454.267-.972v-1.125q-.09.091-.352.171-.256.074-.585.13-.33.052-.642.097l-.523.068a4.2 4.2 0 0 0-.903.21 1.56 1.56 0 0 0-.648.427q-.239.272-.239.727 0 .63.466.954.467.319 1.188.319m7.899-4.012V315h-1.699v-8.727h1.631v1.42h.108q.3-.693.943-1.113.648-.421 1.63-.421.892 0 1.563.375.67.37 1.04 1.102.369.733.369 1.813V315h-1.699v-5.347q0-.948-.494-1.483-.495-.539-1.358-.539-.59 0-1.051.255a1.85 1.85 0 0 0-.722.75q-.261.489-.261 1.182m11.13 5.352q-1.056 0-1.886-.539-.824-.546-1.295-1.551-.466-1.012-.466-2.427t.471-2.42q.478-1.006 1.307-1.54a3.4 3.4 0 0 1 1.881-.534q.812 0 1.307.273.5.267.772.625.279.357.432.631h.102v-4.324h1.699V315h-1.659v-1.358h-.142q-.153.279-.443.636a2.5 2.5 0 0 1-.784.625q-.5.267-1.296.267m.375-1.448q.734 0 1.239-.387.512-.392.773-1.085.267-.693.267-1.614 0-.909-.261-1.591-.262-.681-.768-1.062-.505-.381-1.25-.381-.766 0-1.278.398-.511.398-.773 1.085-.255.689-.255 1.551 0 .876.261 1.574t.773 1.108q.517.404 1.272.404m14.37 1.454q-1.29 0-2.222-.551a3.74 3.74 0 0 1-1.432-1.563q-.5-1.011-.5-2.369 0-1.341.5-2.363a3.9 3.9 0 0 1 1.409-1.597q.91-.574 2.125-.574.74 0 1.432.244.693.245 1.245.767.55.524.869 1.358.318.83.318 2.017v.603h-6.937v-1.273h5.272q0-.67-.272-1.187a2.06 2.06 0 0 0-.767-.824q-.49-.302-1.148-.302-.716 0-1.25.353a2.36 2.36 0 0 0-.818.909q-.284.556-.284 1.21v.994q0 .876.306 1.489.313.614.87.938.557.318 1.301.318.483 0 .881-.137.398-.141.687-.42t.443-.688l1.608.29q-.193.71-.693 1.244-.495.529-1.244.824-.745.29-1.699.29m11.521 3.097v-4.631h-.102q-.153.279-.443.636-.285.358-.784.625-.501.267-1.296.267-1.056 0-1.886-.539-.824-.546-1.296-1.551-.465-1.012-.466-2.427 0-1.415.472-2.42.477-1.006 1.307-1.54a3.4 3.4 0 0 1 1.88-.534q.813 0 1.307.273.5.267.773.625.279.357.432.631h.142v-1.415h1.659v12zm-2.25-4.551q.733 0 1.239-.387.511-.392.772-1.085.267-.693.267-1.614 0-.909-.261-1.591t-.767-1.062-1.25-.381q-.766 0-1.278.398t-.773 1.085q-.255.689-.256 1.551 0 .876.262 1.574.26.699.772 1.108.517.404 1.273.404m11.761-2.341v-5.108h1.705V315h-1.67v-1.511h-.091a2.7 2.7 0 0 1-.966 1.164q-.66.46-1.642.461-.841 0-1.489-.37-.642-.375-1.011-1.108-.364-.732-.364-1.812v-5.551h1.699v5.346q0 .892.494 1.421.495.528 1.284.528.478 0 .949-.238.477-.24.79-.722.318-.483.312-1.227m6.527 3.812a3.6 3.6 0 0 1-1.5-.307 2.5 2.5 0 0 1-1.062-.903q-.386-.591-.386-1.449 0-.739.284-1.216t.767-.756a4 4 0 0 1 1.079-.42 11 11 0 0 1 1.216-.216l1.273-.148q.489-.062.71-.198.222-.137.222-.444v-.039q0-.745-.421-1.154-.414-.41-1.238-.409-.858 0-1.353.381-.488.375-.676.835l-1.596-.364q.284-.795.829-1.284.552-.494 1.267-.716a5 5 0 0 1 1.506-.227q.522 0 1.108.125.59.12 1.102.443.517.324.847.926.329.597.329 1.552V315h-1.659v-1.193h-.068q-.165.33-.494.648-.33.318-.847.528t-1.239.21m.37-1.363q.704 0 1.204-.279.506-.278.767-.727.267-.454.267-.972v-1.125q-.09.091-.352.171-.255.074-.585.13-.33.052-.642.097l-.523.068a4.3 4.3 0 0 0-.903.21 1.56 1.56 0 0 0-.648.427q-.239.272-.239.727 0 .63.466.954.466.319 1.188.319m7.899-10.466V315h-1.699v-11.636zm-145.523 30.812q-1.227 0-2.142-.562a3.8 3.8 0 0 1-1.42-1.574q-.506-1.011-.506-2.364 0-1.358.506-2.375a3.8 3.8 0 0 1 1.42-1.579q.915-.563 2.142-.563t2.142.563 1.421 1.579.505 2.375q0 1.353-.505 2.364a3.8 3.8 0 0 1-1.421 1.574q-.915.562-2.142.562m.006-1.426q.796 0 1.318-.42.523-.421.773-1.12.255-.699.255-1.54 0-.834-.255-1.534a2.5 2.5 0 0 0-.773-1.13q-.523-.426-1.318-.426-.8 0-1.33.426a2.54 2.54 0 0 0-.778 1.13 4.5 4.5 0 0 0-.25 1.534q0 .841.25 1.54.255.699.778 1.12.53.42 1.33.42m5.959 4.523v-12h1.659v1.415h.142q.147-.274.426-.631.279-.358.773-.625.494-.273 1.306-.273 1.058 0 1.887.534.83.534 1.301 1.54.477 1.005.477 2.42t-.471 2.427q-.472 1.005-1.296 1.551-.824.54-1.88.539-.796 0-1.302-.267a2.5 2.5 0 0 1-.784-.625 5 5 0 0 1-.437-.636h-.102v4.631zm1.664-7.637q0 .921.267 1.614.268.693.773 1.085.505.387 1.239.387.761 0 1.273-.404.51-.41.772-1.108.267-.699.267-1.574a4.4 4.4 0 0 0-.261-1.551q-.255-.687-.773-1.085-.512-.398-1.278-.398-.739 0-1.25.381-.506.381-.767 1.062-.261.682-.262 1.591m8.211 7.637v-12h1.659v1.415h.142q.147-.274.426-.631.279-.358.773-.625.494-.273 1.306-.273 1.058 0 1.887.534.83.534 1.301 1.54.477 1.005.477 2.42t-.471 2.427q-.472 1.005-1.296 1.551-.824.54-1.88.539-.796 0-1.302-.267a2.5 2.5 0 0 1-.784-.625 5 5 0 0 1-.437-.636h-.102v4.631zm1.664-7.637q0 .921.267 1.614.268.693.773 1.085.505.387 1.239.387.761 0 1.273-.404.51-.41.772-1.108.267-.699.267-1.574a4.4 4.4 0 0 0-.261-1.551q-.255-.687-.773-1.085-.512-.398-1.278-.398-.739 0-1.25.381-.506.381-.767 1.062-.261.682-.262 1.591m11.887 4.54q-1.227 0-2.142-.562a3.8 3.8 0 0 1-1.421-1.574q-.505-1.011-.505-2.364 0-1.358.505-2.375a3.8 3.8 0 0 1 1.421-1.579q.915-.563 2.142-.563t2.142.563 1.42 1.579.506 2.375q0 1.353-.506 2.364a3.8 3.8 0 0 1-1.42 1.574q-.915.562-2.142.562m.005-1.426q.796 0 1.319-.42.522-.421.772-1.12.256-.699.256-1.54 0-.834-.256-1.534a2.5 2.5 0 0 0-.772-1.13q-.523-.426-1.319-.426-.801 0-1.329.426a2.53 2.53 0 0 0-.778 1.13 4.5 4.5 0 0 0-.25 1.534q0 .841.25 1.54a2.5 2.5 0 0 0 .778 1.12q.528.42 1.329.42m5.959 1.25v-8.727h1.642v1.386h.091q.239-.705.841-1.108a2.4 2.4 0 0 1 1.375-.409q.159 0 .375.011.221.011.347.029v1.625a3 3 0 0 0-.364-.063 3.5 3.5 0 0 0-.523-.039q-.602 0-1.073.255a1.9 1.9 0 0 0-1.012 1.71V334zm10.73-8.727v1.363h-4.767v-1.363zm-3.488-2.091h1.699v8.256q0 .493.147.744a.78.78 0 0 0 .381.335q.238.085.517.085.204 0 .358-.028.153-.028.239-.046l.306 1.404a3 3 0 0 1-.42.113 3.3 3.3 0 0 1-.682.069 3 3 0 0 1-1.25-.239 2.14 2.14 0 0 1-.937-.773q-.358-.523-.358-1.312zm10.896 7.199v-5.108h1.705V334h-1.671v-1.511h-.091q-.3.699-.966 1.164-.658.46-1.642.461-.84 0-1.488-.37-.642-.375-1.012-1.108-.363-.732-.363-1.812v-5.551h1.699v5.346q0 .892.494 1.421.493.528 1.284.528.477 0 .949-.238.477-.24.79-.722.318-.483.312-1.227m5.686-1.563V334h-1.699v-8.727h1.631v1.42h.108q.301-.693.943-1.113.648-.421 1.631-.421.891 0 1.562.375.67.37 1.04 1.102.369.733.369 1.813V334h-1.698v-5.347q0-.948-.495-1.483-.494-.539-1.358-.539-.59 0-1.051.255a1.84 1.84 0 0 0-.721.75q-.262.489-.262 1.182m7.864 5.182v-8.727h1.699V334zm.858-10.074q-.443 0-.762-.295a.96.96 0 0 1-.312-.716q0-.421.312-.716a1.07 1.07 0 0 1 .762-.301q.443 0 .755.301a.94.94 0 0 1 .319.716.95.95 0 0 1-.319.716q-.312.295-.755.295m7.2 1.347v1.363h-4.767v-1.363zm-3.489-2.091h1.699v8.256q0 .493.148.744a.77.77 0 0 0 .381.335q.238.085.517.085.204 0 .358-.028l.238-.046.307 1.404a3 3 0 0 1-.42.113 3.3 3.3 0 0 1-.682.069 3 3 0 0 1-1.25-.239 2.14 2.14 0 0 1-.938-.773q-.358-.523-.358-1.312zm6.442 14.091a3.5 3.5 0 0 1-.693-.063 2.2 2.2 0 0 1-.466-.125l.409-1.392q.466.126.83.108a1 1 0 0 0 .642-.273q.284-.255.5-.835l.21-.579-3.193-8.841h1.818l2.21 6.772h.091l2.21-6.772h1.824l-3.596 9.892a4 4 0 0 1-.637 1.153 2.5 2.5 0 0 1-.92.716q-.534.239-1.239.239m16.377-12v1.363h-4.932v-1.363zm-3.58 8.727v-9.739q0-.818.358-1.358a2.2 2.2 0 0 1 .949-.812 3 3 0 0 1 1.284-.273q.512 0 .875.085.363.08.54.148l-.398 1.375a8 8 0 0 0-.307-.079 1.7 1.7 0 0 0-.454-.052q-.62 0-.887.307-.261.307-.261.887V334zm8.665.176q-1.227 0-2.142-.562a3.8 3.8 0 0 1-1.421-1.574q-.505-1.011-.505-2.364 0-1.358.505-2.375a3.8 3.8 0 0 1 1.421-1.579q.915-.563 2.142-.563t2.142.563 1.42 1.579.506 2.375q0 1.353-.506 2.364a3.8 3.8 0 0 1-1.42 1.574q-.915.562-2.142.562m.005-1.426q.796 0 1.319-.42.522-.421.772-1.12.256-.699.256-1.54 0-.834-.256-1.534a2.5 2.5 0 0 0-.772-1.13q-.523-.426-1.319-.426-.801 0-1.329.426a2.53 2.53 0 0 0-.778 1.13 4.5 4.5 0 0 0-.25 1.534q0 .841.25 1.54a2.5 2.5 0 0 0 .778 1.12q.528.42 1.329.42m5.959 1.25v-8.727h1.642v1.386h.091q.239-.705.841-1.108a2.4 2.4 0 0 1 1.375-.409q.159 0 .375.011.221.011.347.029v1.625a3 3 0 0 0-.364-.063 3.5 3.5 0 0 0-.523-.039q-.602 0-1.073.255a1.9 1.9 0 0 0-1.012 1.71V334zm-107.457 13.818V353h-1.699v-11.636h1.676v4.329h.108q.307-.705.938-1.119.63-.415 1.647-.415.899 0 1.569.369.676.37 1.045 1.103.375.728.375 1.818V353h-1.699v-5.347q0-.96-.494-1.488-.495-.534-1.375-.534-.603 0-1.08.255a1.85 1.85 0 0 0-.744.75q-.267.489-.267 1.182m7.926 5.182v-8.727h1.699V353zm.858-10.074a1.08 1.08 0 0 1-.761-.295.96.96 0 0 1-.313-.716q0-.421.313-.716.318-.301.761-.301.442 0 .756.301a.94.94 0 0 1 .318.716.95.95 0 0 1-.318.716 1.06 1.06 0 0 1-.756.295M715.751 353v-8.727h1.642v1.386h.091q.239-.705.841-1.108a2.4 2.4 0 0 1 1.375-.409q.159 0 .375.011.222.011.347.029v1.625a3 3 0 0 0-.364-.063 3.5 3.5 0 0 0-.522-.039q-.603 0-1.074.255a1.9 1.9 0 0 0-1.012 1.71V353zm6.141 0v-8.727h1.699V353zm.858-10.074a1.08 1.08 0 0 1-.761-.295.96.96 0 0 1-.313-.716q0-.421.313-.716.318-.301.761-.301.442 0 .756.301a.94.94 0 0 1 .318.716.95.95 0 0 1-.318.716 1.06 1.06 0 0 1-.756.295m4.825 4.892V353h-1.699v-8.727h1.631v1.42h.108q.301-.693.943-1.113.648-.421 1.631-.421.892 0 1.562.375.67.37 1.04 1.102t.37 1.813V353h-1.699v-5.347q0-.948-.495-1.483-.494-.539-1.358-.539-.59 0-1.051.255a1.84 1.84 0 0 0-.721.75q-.262.489-.262 1.182m11.523 8.637q-1.04 0-1.79-.273-.744-.273-1.216-.722a3 3 0 0 1-.704-.983l1.46-.602q.154.25.409.528.261.285.705.483.448.2 1.153.199.966 0 1.597-.471.63-.466.63-1.489v-1.716h-.108q-.153.279-.443.619a2.4 2.4 0 0 1-.784.591q-.5.25-1.301.25a3.64 3.64 0 0 1-1.864-.483q-.824-.488-1.306-1.437-.478-.955-.478-2.347t.472-2.386q.477-.995 1.307-1.523a3.4 3.4 0 0 1 1.88-.534q.813 0 1.313.273.5.267.778.625.284.357.438.631h.125v-1.415h1.665v8.92q0 1.125-.523 1.847t-1.415 1.068q-.887.347-2 .347m-.017-4.995q.733 0 1.239-.341.511-.346.772-.988.267-.648.267-1.551 0-.882-.261-1.552t-.767-1.045q-.506-.381-1.25-.381-.767 0-1.278.398a2.4 2.4 0 0 0-.773 1.068 4.2 4.2 0 0 0-.256 1.512q0 .857.262 1.505.26.648.772 1.012.517.363 1.273.363M517.278 314v-11.636h7.216v1.511h-5.46v3.545h4.943v1.506h-4.943V314zm10.938-11.636V314h-1.699v-11.636zm6.047 11.812q-1.29 0-2.222-.551a3.74 3.74 0 0 1-1.432-1.563q-.5-1.011-.5-2.369 0-1.341.5-2.363a3.9 3.9 0 0 1 1.409-1.597q.91-.574 2.125-.574.74 0 1.432.244.693.245 1.245.767.55.524.869 1.358.318.83.318 2.017v.603h-6.937v-1.273h5.272q0-.67-.272-1.187a2.06 2.06 0 0 0-.767-.824q-.49-.302-1.148-.302-.716 0-1.25.353a2.36 2.36 0 0 0-.818.909q-.284.556-.284 1.21v.994q0 .876.306 1.489.313.614.87.938.557.318 1.301.318.483 0 .881-.137.397-.141.687-.42t.443-.688l1.608.29q-.193.71-.693 1.244-.495.529-1.244.824-.745.29-1.699.29m6.767-8.903 1.926 3.397 1.943-3.397h1.858l-2.721 4.363L546.78 314h-1.858l-1.966-3.261-1.96 3.261h-1.864l2.716-4.364-2.682-4.363zm7.471 8.727v-8.727h1.699V314zm.858-10.074a1.08 1.08 0 0 1-.761-.295.96.96 0 0 1-.312-.716q0-.421.312-.716.318-.301.761-.301.444 0 .756.301a.94.94 0 0 1 .318.716.95.95 0 0 1-.318.716q-.312.295-.756.295M552.622 314v-11.636h1.699v4.324h.102q.149-.274.426-.631.28-.358.773-.625.495-.273 1.307-.273 1.057 0 1.886.534.83.534 1.301 1.54.478 1.005.478 2.42t-.472 2.427q-.471 1.005-1.295 1.551-.824.54-1.881.539-.795 0-1.301-.267a2.5 2.5 0 0 1-.784-.625 5 5 0 0 1-.438-.636h-.142V314zm1.665-4.364q0 .921.267 1.614t.773 1.085q.506.387 1.238.387.762 0 1.273-.404.512-.41.773-1.108.267-.699.267-1.574 0-.863-.262-1.551-.255-.687-.772-1.085-.511-.398-1.279-.398-.738 0-1.25.381-.505.381-.767 1.062-.261.682-.261 1.591m9.913-7.272V314h-1.699v-11.636zm6.047 11.812q-1.29 0-2.221-.551a3.73 3.73 0 0 1-1.432-1.563q-.5-1.011-.5-2.369 0-1.341.5-2.363a3.9 3.9 0 0 1 1.409-1.597q.909-.574 2.125-.574a4.3 4.3 0 0 1 1.432.244q.693.245 1.244.767.55.524.869 1.358.318.83.318 2.017v.603h-6.937v-1.273h5.273q0-.67-.273-1.187a2.06 2.06 0 0 0-.767-.824q-.489-.302-1.148-.302-.716 0-1.25.353a2.36 2.36 0 0 0-.818.909 2.6 2.6 0 0 0-.284 1.21v.994q0 .876.307 1.489.312.614.869.938.557.318 1.301.318a2.7 2.7 0 0 0 .881-.137q.398-.141.687-.42a1.8 1.8 0 0 0 .444-.688l1.608.29q-.193.71-.694 1.244a3.35 3.35 0 0 1-1.244.824q-.744.29-1.699.29m11.756-.176-2.568-8.727h1.755l1.711 6.409h.085l1.716-6.409h1.755l1.705 6.38h.085l1.699-6.38h1.756L589.139 314h-1.733l-1.772-6.301h-.131L583.73 314zm14.721.176q-1.227 0-2.142-.562a3.8 3.8 0 0 1-1.42-1.574q-.506-1.011-.506-2.364 0-1.358.506-2.375a3.8 3.8 0 0 1 1.42-1.579q.915-.563 2.142-.563 1.228 0 2.142.563.915.562 1.421 1.579t.506 2.375q0 1.353-.506 2.364a3.8 3.8 0 0 1-1.421 1.574q-.914.562-2.142.562m.006-1.426q.795 0 1.318-.42.523-.421.773-1.12.255-.699.256-1.54 0-.834-.256-1.534a2.5 2.5 0 0 0-.773-1.13q-.523-.426-1.318-.426-.801 0-1.329.426a2.54 2.54 0 0 0-.779 1.13 4.5 4.5 0 0 0-.25 1.534q0 .841.25 1.54.256.699.779 1.12.528.42 1.329.42m5.959 1.25v-8.727h1.642v1.386h.091q.238-.705.841-1.108a2.4 2.4 0 0 1 1.375-.409q.159 0 .375.011.222.011.346.029v1.625a3 3 0 0 0-.363-.063 4 4 0 0 0-.523-.039q-.602 0-1.074.255a1.9 1.9 0 0 0-1.011 1.71V314zm7.703-2.96-.011-2.074h.295l3.477-3.693h2.035l-3.966 4.204h-.267zM608.83 314v-11.636h1.698V314zm5.511 0-3.125-4.148 1.17-1.187 4.04 5.335zm-94.659 19.193a3.6 3.6 0 0 1-1.5-.307 2.53 2.53 0 0 1-1.063-.903q-.386-.591-.386-1.449 0-.739.284-1.216t.767-.756a4 4 0 0 1 1.08-.42q.596-.143 1.216-.216l1.272-.148q.49-.062.71-.198.222-.137.222-.444v-.039q0-.745-.42-1.154-.416-.41-1.239-.409-.858 0-1.352.381-.489.375-.676.835l-1.597-.364q.284-.795.83-1.284a3.4 3.4 0 0 1 1.267-.716 5 5 0 0 1 1.505-.227q.523 0 1.108.125.591.12 1.102.443.517.324.847.926.33.597.33 1.552V333h-1.659v-1.193h-.069q-.164.33-.494.648t-.847.528-1.238.21m.369-1.363q.704 0 1.205-.279.505-.278.767-.727.267-.454.267-.972v-1.125q-.091.091-.352.171a5 5 0 0 1-.586.13q-.328.052-.642.097l-.522.068q-.495.063-.904.21a1.56 1.56 0 0 0-.648.427q-.238.272-.238.727 0 .63.466.954.465.319 1.187.319m6.2 1.17v-8.727h1.642v1.386h.091q.239-.705.841-1.108a2.4 2.4 0 0 1 1.375-.409q.159 0 .375.011.222.011.347.029v1.625a3 3 0 0 0-.364-.063 3.5 3.5 0 0 0-.522-.039q-.603 0-1.074.255a1.9 1.9 0 0 0-1.012 1.71V333zm6.141 0v-8.727h1.642v1.386h.091q.238-.705.841-1.108a2.4 2.4 0 0 1 1.375-.409q.159 0 .375.011.222.011.346.029v1.625a3 3 0 0 0-.363-.063 3.5 3.5 0 0 0-.523-.039q-.601 0-1.074.255a1.9 1.9 0 0 0-1.011 1.71V333zm8.602.193a3.6 3.6 0 0 1-1.5-.307 2.5 2.5 0 0 1-1.062-.903q-.387-.591-.387-1.449 0-.739.285-1.216.284-.477.767-.756a4 4 0 0 1 1.079-.42 11 11 0 0 1 1.216-.216l1.273-.148q.489-.062.71-.198.222-.137.222-.444v-.039q0-.745-.421-1.154-.414-.41-1.238-.409-.858 0-1.353.381-.489.375-.676.835l-1.597-.364q.285-.795.83-1.284.551-.494 1.267-.716a5 5 0 0 1 1.506-.227q.523 0 1.108.125.59.12 1.102.443.517.324.847.926.329.597.329 1.552V333h-1.659v-1.193h-.068q-.165.33-.494.648-.33.318-.847.528-.518.21-1.239.21m.37-1.363q.704 0 1.204-.279.506-.278.767-.727.267-.454.267-.972v-1.125q-.09.091-.352.171-.256.074-.585.13-.33.052-.642.097l-.523.068a4.2 4.2 0 0 0-.903.21 1.56 1.56 0 0 0-.648.427q-.239.272-.239.727 0 .63.466.954.467.319 1.188.319m7.899-4.012V333h-1.699v-8.727h1.631v1.42h.108q.3-.693.943-1.113.648-.421 1.63-.421.892 0 1.563.375.67.37 1.04 1.102.369.733.369 1.813V333h-1.699v-5.347q0-.948-.494-1.483-.495-.539-1.358-.539-.59 0-1.051.255a1.85 1.85 0 0 0-.722.75q-.261.489-.261 1.182m11.523 8.637q-1.04 0-1.79-.273-.745-.273-1.216-.722a3 3 0 0 1-.705-.983l1.461-.602q.153.25.409.528.261.285.704.483.449.2 1.154.199.965 0 1.596-.471.631-.466.631-1.489v-1.716h-.108q-.153.279-.443.619-.285.342-.784.591-.5.25-1.302.25-1.034 0-1.863-.483-.824-.488-1.307-1.437-.477-.955-.477-2.347t.471-2.386q.478-.995 1.307-1.523a3.4 3.4 0 0 1 1.881-.534q.812 0 1.312.273.5.267.779.625.284.357.437.631h.125v-1.415h1.665v8.92q0 1.125-.523 1.847t-1.414 1.068q-.887.347-2 .347m-.018-4.995q.734 0 1.239-.341.512-.346.773-.988.267-.648.267-1.551 0-.882-.261-1.552-.262-.67-.768-1.045-.505-.381-1.25-.381-.766 0-1.278.398-.511.392-.773 1.068a4.3 4.3 0 0 0-.255 1.512q0 .857.261 1.505t.773 1.012q.517.363 1.272.363m9.995 1.716q-1.29 0-2.222-.551a3.74 3.74 0 0 1-1.432-1.563q-.5-1.011-.5-2.369 0-1.341.5-2.363a3.9 3.9 0 0 1 1.409-1.597q.91-.574 2.125-.574.74 0 1.432.244.693.245 1.245.767.55.524.869 1.358.318.83.318 2.017v.603h-6.937v-1.273h5.272q0-.67-.272-1.187a2.06 2.06 0 0 0-.767-.824q-.49-.302-1.148-.302-.716 0-1.25.353a2.36 2.36 0 0 0-.818.909q-.284.556-.284 1.21v.994q0 .876.306 1.489.313.614.87.938.557.318 1.301.318.483 0 .881-.137.397-.141.687-.42t.443-.688l1.608.29q-.193.71-.693 1.244-.495.529-1.244.824-.745.29-1.699.29m5.629-.176v-8.727h1.631v1.42h.108q.273-.721.892-1.125.62-.41 1.483-.409.875 0 1.466.409.596.41.88 1.125h.091q.313-.699.995-1.113.681-.421 1.624-.421 1.188 0 1.938.744.756.745.756 2.245V333h-1.699v-5.693q0-.887-.483-1.284a1.76 1.76 0 0 0-1.154-.398q-.829 0-1.289.511-.46.506-.461 1.302V333h-1.693v-5.801q0-.71-.443-1.142t-1.153-.432q-.484 0-.892.256a1.87 1.87 0 0 0-.654.699 2.13 2.13 0 0 0-.244 1.039V333zm17.902.176q-1.29 0-2.222-.551a3.74 3.74 0 0 1-1.431-1.563q-.5-1.011-.5-2.369 0-1.341.5-2.363a3.9 3.9 0 0 1 1.409-1.597q.909-.574 2.125-.574.738 0 1.432.244.692.245 1.244.767.55.524.869 1.358.318.83.318 2.017v.603h-6.937v-1.273h5.273q0-.67-.273-1.187a2.06 2.06 0 0 0-.767-.824q-.49-.302-1.148-.302-.716 0-1.25.353a2.36 2.36 0 0 0-.818.909 2.6 2.6 0 0 0-.284 1.21v.994q0 .876.307 1.489.312.614.869.938.557.318 1.301.318a2.7 2.7 0 0 0 .881-.137q.398-.141.687-.42t.443-.688l1.608.29a2.9 2.9 0 0 1-.693 1.244 3.35 3.35 0 0 1-1.244.824q-.745.29-1.699.29m7.328-5.358V333h-1.699v-8.727h1.631v1.42h.108q.301-.693.943-1.113.648-.421 1.631-.421.891 0 1.562.375.67.37 1.04 1.102.369.733.369 1.813V333h-1.698v-5.347q0-.948-.495-1.483-.494-.539-1.358-.539-.59 0-1.051.255a1.84 1.84 0 0 0-.721.75q-.262.489-.262 1.182m11.938-3.545v1.363h-4.767v-1.363zm-3.489-2.091h1.699v8.256q0 .493.148.744a.77.77 0 0 0 .38.335q.239.085.517.085.205 0 .358-.028.154-.028.239-.046l.307 1.404a3 3 0 0 1-.421.113 3.3 3.3 0 0 1-.682.069 3 3 0 0 1-1.25-.239 2.15 2.15 0 0 1-.937-.773q-.358-.523-.358-1.312zm11.767 4.221-1.54.273a1.8 1.8 0 0 0-.307-.562 1.5 1.5 0 0 0-.556-.438q-.353-.17-.881-.17-.722 0-1.205.324-.483.318-.483.823 0 .438.324.705t1.046.437l1.386.319q1.205.277 1.796.858.591.58.591 1.505 0 .784-.455 1.398-.449.607-1.256.955-.8.346-1.858.346-1.465 0-2.392-.625-.926-.63-1.136-1.79l1.642-.25q.153.642.631.972.477.324 1.244.324.835 0 1.335-.347.5-.353.5-.858a.89.89 0 0 0-.307-.687q-.3-.279-.926-.421l-1.477-.324q-1.221-.278-1.807-.886-.579-.607-.579-1.54 0-.773.431-1.352.432-.579 1.194-.903.761-.33 1.744-.33 1.415 0 2.227.614.813.608 1.074 1.63m276.44-23.039h2.131l3.705 9.045h.136l3.705-9.045h2.13V315h-1.67v-8.42h-.108l-3.432 8.403h-1.386l-3.432-8.409h-.108V315h-1.671zm19.752 8.017v-5.108h1.704V315h-1.67v-1.511h-.091a2.7 2.7 0 0 1-.966 1.164q-.659.46-1.642.461-.841 0-1.489-.37-.642-.375-1.011-1.108-.364-.732-.364-1.812v-5.551h1.699v5.346q0 .892.495 1.421.493.528 1.284.528.477 0 .949-.238.477-.24.789-.722.318-.483.313-1.227m5.686-8.017V315h-1.699v-11.636zm6.359 2.909v1.363h-4.767v-1.363zm-3.488-2.091h1.699v8.256q0 .493.147.744a.78.78 0 0 0 .381.335q.238.085.517.085.204 0 .358-.028.153-.028.239-.046l.306 1.404a3 3 0 0 1-.42.113 3.3 3.3 0 0 1-.682.069 3 3 0 0 1-1.25-.239 2.14 2.14 0 0 1-.937-.773q-.358-.523-.358-1.312zM931.955 315v-8.727h1.698V315zm.857-10.074a1.08 1.08 0 0 1-.761-.295.96.96 0 0 1-.312-.716q0-.421.312-.716.318-.301.761-.301.444 0 .756.301a.94.94 0 0 1 .318.716.95.95 0 0 1-.318.716q-.312.295-.756.295m6.803 10.25q-1.267 0-2.182-.574a3.8 3.8 0 0 1-1.397-1.596q-.489-1.017-.489-2.33 0-1.329.5-2.346a3.83 3.83 0 0 1 1.409-1.597q.909-.574 2.142-.574.995 0 1.773.369.778.365 1.255 1.023.484.66.574 1.54h-1.653a2 2 0 0 0-.625-1.057q-.483-.443-1.296-.443a2.1 2.1 0 0 0-1.244.375q-.528.369-.824 1.057-.295.681-.295 1.613 0 .955.29 1.648.289.693.818 1.074.534.381 1.255.381.483 0 .875-.177.399-.181.665-.517a1.94 1.94 0 0 0 .381-.806h1.653a3.2 3.2 0 0 1-.551 1.511 3.17 3.17 0 0 1-1.233 1.045q-.767.381-1.801.381m10.93-3.795v-5.108h1.705V315h-1.67v-1.511h-.091a2.7 2.7 0 0 1-.966 1.164q-.66.46-1.642.461-.841 0-1.489-.37-.642-.375-1.011-1.108-.364-.732-.364-1.812v-5.551h1.699v5.346q0 .892.494 1.421.495.528 1.284.528.478 0 .949-.238.477-.24.79-.722.318-.483.312-1.227m5.687-8.017V315h-1.699v-11.636zm6.359 2.909v1.363h-4.767v-1.363zm-3.489-2.091h1.699v8.256q0 .493.148.744a.77.77 0 0 0 .381.335q.238.085.517.085.204 0 .358-.028l.238-.046.307 1.404a3 3 0 0 1-.42.113q-.274.063-.682.069a3 3 0 0 1-1.25-.239 2.14 2.14 0 0 1-.938-.773q-.357-.523-.358-1.312zm10.897 7.199v-5.108h1.704V315h-1.67v-1.511h-.091a2.7 2.7 0 0 1-.966 1.164q-.66.46-1.642.461-.841 0-1.489-.37-.642-.375-1.011-1.108-.364-.732-.364-1.812v-5.551h1.699v5.346q0 .892.494 1.421.495.528 1.284.528.478 0 .949-.238.477-.24.79-.722.318-.483.313-1.227m3.987 3.619v-8.727h1.642v1.386h.091q.238-.705.841-1.108a2.4 2.4 0 0 1 1.375-.409q.159 0 .375.011.221.011.346.029v1.625a3 3 0 0 0-.363-.063 4 4 0 0 0-.523-.039q-.603 0-1.074.255a1.9 1.9 0 0 0-1.011 1.71V315zm8.602.193a3.6 3.6 0 0 1-1.5-.307 2.5 2.5 0 0 1-1.062-.903q-.387-.591-.387-1.449 0-.739.284-1.216t.767-.756a4 4 0 0 1 1.08-.42 11 11 0 0 1 1.216-.216l1.273-.148q.488-.062.71-.198.22-.137.221-.444v-.039q0-.745-.42-1.154-.416-.41-1.239-.409-.858 0-1.352.381-.489.375-.676.835l-1.597-.364q.285-.795.83-1.284.551-.494 1.267-.716a5 5 0 0 1 1.506-.227q.522 0 1.107.125.591.12 1.103.443.517.324.846.926.33.597.33 1.552V315h-1.659v-1.193h-.068q-.165.33-.495.648a2.6 2.6 0 0 1-.846.528q-.518.21-1.239.21m.369-1.363q.705 0 1.205-.279.506-.278.767-.727.267-.454.267-.972v-1.125q-.091.091-.352.171a5 5 0 0 1-.585.13q-.33.052-.643.097l-.522.068q-.495.063-.904.21a1.55 1.55 0 0 0-.647.427q-.239.272-.239.727 0 .63.466.954.465.319 1.187.319m7.9-10.466V315h-1.699v-11.636zm-89.039 30.812q-1.267 0-2.182-.574a3.8 3.8 0 0 1-1.397-1.596q-.489-1.017-.489-2.33 0-1.329.5-2.346a3.83 3.83 0 0 1 1.409-1.597q.909-.574 2.142-.574.995 0 1.773.369.778.365 1.256 1.023.483.66.573 1.54h-1.653a2 2 0 0 0-.625-1.057q-.483-.443-1.295-.443-.711 0-1.245.375-.528.369-.824 1.057-.295.681-.295 1.613 0 .955.29 1.648t.818 1.074q.534.381 1.256.381.483 0 .875-.177.397-.181.664-.517a1.94 1.94 0 0 0 .381-.806h1.653a3.2 3.2 0 0 1-.551 1.511 3.17 3.17 0 0 1-1.233 1.045q-.766.381-1.801.381m9.164 0q-1.29 0-2.222-.551a3.74 3.74 0 0 1-1.432-1.563q-.5-1.011-.5-2.369 0-1.341.5-2.363a3.9 3.9 0 0 1 1.409-1.597q.91-.574 2.125-.574.74 0 1.432.244.693.245 1.244.767.552.524.87 1.358.318.83.318 2.017v.603h-6.938v-1.273h5.273q0-.67-.273-1.187a2.05 2.05 0 0 0-.767-.824q-.488-.302-1.147-.302-.716 0-1.25.353a2.37 2.37 0 0 0-.819.909 2.6 2.6 0 0 0-.284 1.21v.994q0 .876.307 1.489.312.614.869.938.557.318 1.302.318.483 0 .88-.137.398-.141.688-.42t.443-.688l1.608.29q-.193.71-.693 1.244-.495.529-1.245.824-.744.29-1.698.29m7.328-11.812V334h-1.699v-11.636zm6.047 11.812q-1.29 0-2.222-.551a3.74 3.74 0 0 1-1.432-1.563q-.5-1.011-.5-2.369 0-1.341.5-2.363a3.9 3.9 0 0 1 1.409-1.597q.91-.574 2.125-.574.74 0 1.432.244.693.245 1.244.767.552.524.87 1.358.318.83.318 2.017v.603h-6.938v-1.273h5.273q0-.67-.273-1.187a2.05 2.05 0 0 0-.767-.824q-.488-.302-1.147-.302-.716 0-1.25.353a2.37 2.37 0 0 0-.819.909 2.6 2.6 0 0 0-.284 1.21v.994q0 .876.307 1.489.312.614.869.938.557.318 1.302.318.483 0 .88-.137.398-.141.688-.42t.443-.688l1.608.29q-.193.71-.693 1.244-.495.529-1.245.824-.744.29-1.698.29m5.765-.176v-11.636h1.699v4.324h.102q.149-.274.426-.631.28-.358.773-.625.495-.273 1.307-.273 1.057 0 1.886.534.83.534 1.301 1.54.478 1.005.478 2.42t-.472 2.427q-.471 1.005-1.295 1.551-.824.54-1.881.539-.795 0-1.301-.267a2.5 2.5 0 0 1-.784-.625 5 5 0 0 1-.438-.636h-.142V334zm1.665-4.364q0 .921.267 1.614t.773 1.085q.506.387 1.238.387.762 0 1.273-.404.512-.41.773-1.108.267-.699.267-1.574 0-.863-.262-1.551-.255-.687-.772-1.085-.511-.398-1.279-.398-.738 0-1.25.381-.505.381-.767 1.062-.261.682-.261 1.591m8.214 4.364v-8.727h1.642v1.386h.091q.239-.705.841-1.108a2.4 2.4 0 0 1 1.375-.409q.159 0 .375.011.222.011.347.029v1.625a3 3 0 0 0-.364-.063 3.5 3.5 0 0 0-.522-.039q-.603 0-1.074.255a1.9 1.9 0 0 0-1.012 1.71V334zm8.603.193a3.6 3.6 0 0 1-1.5-.307 2.53 2.53 0 0 1-1.063-.903q-.386-.591-.386-1.449 0-.739.284-1.216t.767-.756a4 4 0 0 1 1.08-.42q.596-.143 1.215-.216l1.273-.148q.49-.062.71-.198.222-.137.222-.444v-.039q0-.745-.42-1.154-.416-.41-1.239-.409-.858 0-1.352.381-.49.375-.677.835l-1.596-.364q.284-.795.829-1.284.552-.494 1.267-.716a5 5 0 0 1 1.506-.227q.523 0 1.108.125.59.12 1.102.443.517.324.847.926.33.597.33 1.552V334h-1.66v-1.193h-.068q-.164.33-.494.648t-.847.528-1.238.21m.369-1.363q.704 0 1.205-.279.505-.278.767-.727.267-.454.267-.972v-1.125q-.091.091-.353.171-.255.074-.585.13-.33.052-.642.097l-.523.068a4.3 4.3 0 0 0-.903.21 1.56 1.56 0 0 0-.648.427q-.238.272-.238.727 0 .63.466.954.465.319 1.187.319m10.274-7.557v1.363h-4.767v-1.363zm-3.488-2.091h1.698v8.256q0 .493.148.744a.77.77 0 0 0 .381.335q.238.085.517.085.204 0 .358-.028t.238-.046l.307 1.404a3 3 0 0 1-.42.113 3.3 3.3 0 0 1-.682.069 3 3 0 0 1-1.25-.239 2.15 2.15 0 0 1-.938-.773q-.357-.523-.357-1.312zM961.126 334v-8.727h1.699V334zm.858-10.074a1.08 1.08 0 0 1-.761-.295.96.96 0 0 1-.312-.716q0-.421.312-.716.318-.301.761-.301.444 0 .756.301a.94.94 0 0 1 .318.716.95.95 0 0 1-.318.716q-.312.295-.756.295m6.803 10.25q-1.227 0-2.142-.562a3.8 3.8 0 0 1-1.421-1.574q-.505-1.011-.505-2.364 0-1.358.505-2.375a3.8 3.8 0 0 1 1.421-1.579q.915-.563 2.142-.563t2.142.563 1.42 1.579.506 2.375q0 1.353-.506 2.364a3.8 3.8 0 0 1-1.42 1.574q-.915.562-2.142.562m.006-1.426q.795 0 1.318-.42.522-.421.773-1.12.255-.699.255-1.54 0-.834-.255-1.534a2.5 2.5 0 0 0-.773-1.13q-.523-.426-1.318-.426-.801 0-1.33.426a2.54 2.54 0 0 0-.778 1.13 4.5 4.5 0 0 0-.25 1.534q0 .841.25 1.54.255.699.778 1.12.528.42 1.33.42m7.657-3.932V334h-1.699v-8.727h1.631v1.42h.108q.301-.693.943-1.113.648-.421 1.631-.421.892 0 1.562.375.67.37 1.04 1.102t.37 1.813V334h-1.699v-5.347q0-.948-.495-1.483-.494-.539-1.358-.539-.59 0-1.051.255a1.84 1.84 0 0 0-.721.75q-.262.489-.262 1.182m15.365 5.352q-1.056 0-1.886-.539-.824-.546-1.295-1.551-.466-1.012-.466-2.427t.471-2.42q.477-1.006 1.307-1.54a3.4 3.4 0 0 1 1.881-.534q.812 0 1.307.273.5.267.772.625.279.357.432.631h.102v-4.324h1.699V334h-1.659v-1.358h-.142q-.153.279-.443.636-.285.358-.784.625t-1.296.267m.375-1.448q.734 0 1.239-.387.511-.392.773-1.085.267-.693.267-1.614 0-.909-.262-1.591-.261-.681-.767-1.062-.505-.381-1.25-.381-.766 0-1.278.398t-.773 1.085q-.255.689-.255 1.551 0 .876.261 1.574t.773 1.108q.517.404 1.272.404m8.91 1.471q-.826 0-1.496-.307a2.53 2.53 0 0 1-1.063-.903q-.386-.591-.386-1.449 0-.739.284-1.216t.767-.756a4 4 0 0 1 1.084-.42c.39-.095.8-.167 1.21-.216l1.27-.148c.33-.041.57-.108.71-.198.15-.091.23-.239.23-.444v-.039q0-.745-.42-1.154c-.28-.273-.69-.409-1.24-.409-.58 0-1.03.127-1.36.381-.32.25-.55.528-.67.835l-1.598-.364q.284-.795.829-1.284a3.4 3.4 0 0 1 1.269-.716 5 5 0 0 1 1.5-.227q.525 0 1.11.125c.4.08.76.227 1.1.443.35.216.63.525.85.926q.33.597.33 1.552V334h-1.66v-1.193h-.07c-.11.22-.27.435-.49.648-.22.212-.5.388-.85.528-.34.14-.76.21-1.24.21m.37-1.363c.47 0 .87-.093 1.21-.279a1.95 1.95 0 0 0 1.03-1.699v-1.125c-.06.061-.18.118-.35.171a5 5 0 0 1-.59.13c-.22.034-.43.067-.64.097l-.52.068q-.495.063-.9.21c-.27.099-.49.241-.65.427q-.24.272-.24.727-.001.63.47.954c.31.212.7.319 1.18.319m6.96 4.443q-.375 0-.69-.063a2 2 0 0 1-.46-.125l.4-1.392c.32.084.59.12.83.108.25-.011.46-.102.65-.273.19-.17.35-.448.5-.835l.21-.579-3.2-8.841h1.82l2.21 6.772h.09l2.21-6.772h1.83l-3.6 9.892c-.17.454-.38.839-.64 1.153-.25.318-.56.557-.92.716-.35.159-.77.239-1.24.239m14.53-9.87-1.54.273a1.7 1.7 0 0 0-.3-.562 1.6 1.6 0 0 0-.56-.438c-.24-.114-.53-.17-.88-.17-.48 0-.88.108-1.21.324q-.48.318-.48.823 0 .438.33.705c.21.178.56.324 1.04.437l1.39.319c.8.185 1.4.471 1.79.858.4.386.59.888.59 1.505q0 .784-.45 1.398-.45.607-1.26.955c-.53.231-1.15.346-1.85.346q-1.47 0-2.4-.625c-.61-.42-.99-1.017-1.13-1.79l1.64-.25q.15.642.63.972c.32.216.73.324 1.24.324.56 0 1.01-.116 1.34-.347.33-.235.5-.521.5-.858 0-.272-.1-.502-.31-.687-.2-.186-.51-.326-.92-.421l-1.48-.324c-.82-.185-1.42-.481-1.81-.886-.38-.405-.58-.918-.58-1.54 0-.515.15-.966.43-1.352q.435-.579 1.2-.903.765-.33 1.74-.33c.95 0 1.69.205 2.23.614.54.405.9.949 1.07 1.63m70.3-12.403h-1.86l4.19-11.636h2.02L1101.8 315h-1.86l-3.29-9.523h-.09zm.31-4.557h6.05v1.477h-6.05zm10.57 4.557-2.56-8.727h1.75l1.71 6.409h.09l1.71-6.409h1.76l1.7 6.38h.09l1.7-6.38h1.75l-2.56 8.727h-1.73l-1.78-6.301h-.13l-1.77 6.301zm13.85.193q-.825 0-1.5-.307a2.55 2.55 0 0 1-1.06-.903c-.26-.394-.38-.877-.38-1.449 0-.492.09-.898.28-1.216s.44-.57.77-.756q.48-.278 1.08-.42c.39-.095.8-.167 1.21-.216l1.27-.148q.495-.062.72-.198c.14-.091.22-.239.22-.444v-.039q0-.745-.42-1.154c-.28-.273-.69-.409-1.24-.409-.57 0-1.03.127-1.35.381-.33.25-.56.528-.68.835l-1.6-.364c.19-.53.47-.958.83-1.284.37-.329.79-.568 1.27-.716a5 5 0 0 1 1.5-.227q.525 0 1.11.125c.4.08.76.227 1.1.443.35.216.63.525.85.926q.33.597.33 1.552V315h-1.66v-1.193h-.07c-.11.22-.27.435-.49.648-.22.212-.5.388-.85.528-.34.14-.75.21-1.24.21m.37-1.363c.47 0 .87-.093 1.21-.279.34-.185.59-.428.77-.727.17-.303.26-.627.26-.972v-1.125c-.06.061-.18.118-.35.171a5 5 0 0 1-.59.13c-.21.034-.43.067-.64.097l-.52.068q-.495.063-.9.21c-.27.099-.49.241-.65.427q-.24.272-.24.727c0 .42.16.738.47.954.31.212.7.319 1.18.319m6.2 1.17v-8.727h1.65v1.386h.09q.24-.705.84-1.108c.4-.273.86-.409 1.37-.409.11 0 .23.004.38.011.15.008.26.017.34.029v1.625c-.06-.019-.19-.04-.36-.063a3.5 3.5 0 0 0-.52-.039q-.6 0-1.08.255c-.31.167-.55.4-.73.699-.19.296-.28.633-.28 1.011V315zm9.1.17c-.71 0-1.33-.179-1.89-.539q-.825-.546-1.29-1.551c-.31-.675-.47-1.483-.47-2.427 0-.943.16-1.75.47-2.42.32-.671.76-1.184 1.31-1.54s1.18-.534 1.88-.534c.54 0 .98.091 1.31.273.33.178.59.386.77.625.19.238.33.449.43.631h.1v-4.324h1.7V315h-1.66v-1.358h-.14c-.1.186-.25.398-.44.636-.19.239-.45.447-.79.625q-.495.267-1.29.267m.37-1.448c.49 0 .91-.129 1.24-.387q.51-.392.78-1.085c.17-.462.26-1 .26-1.614 0-.606-.08-1.136-.26-1.591a2.3 2.3 0 0 0-.77-1.062c-.33-.254-.75-.381-1.25-.381-.51 0-.93.133-1.27.398-.35.265-.6.627-.78 1.085-.17.459-.25.976-.25 1.551 0 .584.08 1.108.26 1.574.17.466.43.835.77 1.108.35.269.77.404 1.27.404m12.92-5.319-1.54.273a2 2 0 0 0-.31-.562 1.5 1.5 0 0 0-.56-.438c-.23-.114-.52-.17-.88-.17q-.72 0-1.2.324-.48.318-.48.823c0 .292.1.527.32.705s.56.324 1.05.437l1.38.319q1.2.277 1.8.858c.39.386.59.888.59 1.505 0 .523-.15.989-.46 1.398-.3.405-.71.723-1.25.955q-.81.346-1.86.346c-.98 0-1.77-.208-2.39-.625q-.93-.63-1.14-1.79l1.64-.25q.165.642.63.972c.32.216.74.324 1.25.324.56 0 1-.116 1.33-.347.34-.235.5-.521.5-.858a.9.9 0 0 0-.3-.687q-.3-.279-.93-.421l-1.48-.324q-1.215-.278-1.8-.886c-.39-.405-.58-.918-.58-1.54 0-.515.14-.966.43-1.352s.68-.687 1.19-.903c.51-.22 1.09-.33 1.75-.33q1.41 0 2.22.614c.55.405.9.949 1.08 1.63m8.81 6.79q-.825 0-1.5-.307a2.5 2.5 0 0 1-1.06-.903q-.39-.591-.39-1.449c0-.492.1-.898.29-1.216.18-.318.44-.57.76-.756q.48-.278 1.08-.42c.4-.095.8-.167 1.22-.216l1.27-.148c.33-.041.56-.108.71-.198s.22-.239.22-.444v-.039q0-.745-.42-1.154c-.27-.273-.69-.409-1.24-.409q-.855 0-1.35.381c-.32.25-.55.528-.68.835l-1.59-.364c.19-.53.46-.958.83-1.284q.555-.494 1.26-.716c.48-.151.98-.227 1.51-.227q.525 0 1.11.125c.39.08.76.227 1.1.443.35.216.63.525.85.926q.33.597.33 1.552V315h-1.66v-1.193h-.07c-.11.22-.28.435-.49.648-.22.212-.51.388-.85.528-.35.14-.76.21-1.24.21m.37-1.363q.705 0 1.2-.279c.34-.185.6-.428.77-.727q.27-.454.27-.972v-1.125c-.06.061-.18.118-.35.171a5 5 0 0 1-.59.13c-.22.034-.43.067-.64.097l-.52.068c-.33.042-.64.112-.91.21-.27.099-.48.241-.65.427-.15.181-.23.424-.23.727 0 .42.15.738.46.954.31.212.71.319 1.19.319m7.9-4.012V315h-1.7v-8.727h1.63v1.42h.11c.2-.462.51-.833.94-1.113.43-.281.98-.421 1.63-.421q.9 0 1.56.375c.45.246.8.614 1.04 1.102.25.489.37 1.093.37 1.813V315h-1.7v-5.347c0-.632-.16-1.126-.49-1.483-.33-.359-.78-.539-1.36-.539q-.585 0-1.05.255-.45.257-.72.75c-.17.326-.26.72-.26 1.182m11.13 5.352c-.71 0-1.33-.179-1.89-.539q-.825-.546-1.29-1.551c-.31-.675-.47-1.483-.47-2.427 0-.943.16-1.75.47-2.42.32-.671.76-1.184 1.31-1.54s1.18-.534 1.88-.534c.54 0 .98.091 1.31.273.33.178.59.386.77.625.19.238.33.449.43.631h.1v-4.324h1.7V315h-1.66v-1.358h-.14c-.1.186-.25.398-.44.636-.19.239-.45.447-.79.625q-.495.267-1.29.267m.37-1.448c.49 0 .91-.129 1.24-.387q.51-.392.78-1.085c.17-.462.26-1 .26-1.614 0-.606-.08-1.136-.26-1.591a2.3 2.3 0 0 0-.77-1.062c-.33-.254-.75-.381-1.25-.381-.51 0-.93.133-1.27.398-.35.265-.6.627-.78 1.085-.17.459-.25.976-.25 1.551 0 .584.08 1.108.26 1.574.17.466.43.835.77 1.108.35.269.77.404 1.27.404M1092.14 334v-8.727h1.64v1.386h.1q.225-.705.84-1.108c.4-.273.86-.409 1.37-.409.11 0 .23.004.38.011.14.008.26.017.34.029v1.625q-.105-.029-.36-.063a4 4 0 0 0-.52-.039c-.41 0-.76.085-1.08.255-.31.167-.55.4-.74.699q-.27.444-.27 1.011V334zm9.59.176q-1.29 0-2.22-.551c-.62-.371-1.09-.892-1.43-1.563-.34-.674-.5-1.464-.5-2.369 0-.894.16-1.682.5-2.363.34-.682.8-1.214 1.41-1.597.6-.383 1.31-.574 2.12-.574.49 0 .97.082 1.43.244.47.163.88.419 1.25.767q.555.524.87 1.358c.21.553.32 1.226.32 2.017v.603h-6.94v-1.273h5.27q0-.67-.27-1.187a2.05 2.05 0 0 0-.77-.824c-.32-.201-.71-.302-1.15-.302-.47 0-.89.118-1.25.353q-.525.346-.81.909c-.19.371-.29.774-.29 1.21v.994c0 .584.1 1.08.31 1.489q.315.614.87.938c.37.212.8.318 1.3.318.32 0 .61-.046.88-.137q.39-.141.69-.42c.19-.186.34-.415.44-.688l1.61.29c-.13.474-.36.888-.7 1.244-.32.353-.74.627-1.24.824-.5.194-1.06.29-1.7.29m9.31 0c-.85 0-1.58-.191-2.18-.574a3.74 3.74 0 0 1-1.4-1.596c-.33-.678-.49-1.455-.49-2.33 0-.886.17-1.668.5-2.346q.495-1.023 1.41-1.597c.6-.383 1.32-.574 2.14-.574q.99 0 1.77.369.78.365 1.26 1.023.48.66.57 1.54h-1.65a1.96 1.96 0 0 0-.63-1.057q-.48-.443-1.29-.443c-.48 0-.89.125-1.25.375-.35.246-.62.598-.82 1.057q-.3.681-.3 1.613c0 .637.1 1.186.29 1.648.2.462.47.82.82 1.074q.54.381 1.26.381.48 0 .87-.177c.27-.121.49-.293.67-.517.18-.223.31-.492.38-.806h1.65a3.17 3.17 0 0 1-.55 1.511q-.465.665-1.23 1.045-.765.381-1.8.381m9.08 0c-.82 0-1.54-.187-2.15-.562s-1.08-.9-1.42-1.574c-.33-.674-.5-1.462-.5-2.364 0-.905.17-1.697.5-2.375.34-.678.81-1.204 1.42-1.579s1.33-.563 2.15-.563c.81 0 1.53.188 2.14.563s1.08.901 1.42 1.579c.33.678.5 1.47.5 2.375 0 .902-.17 1.69-.5 2.364-.34.674-.81 1.199-1.42 1.574s-1.33.562-2.14.562m0-1.426q.795 0 1.32-.42c.35-.281.6-.654.77-1.12s.26-.979.26-1.54c0-.556-.09-1.068-.26-1.534-.17-.469-.42-.846-.77-1.13q-.525-.426-1.32-.426c-.53 0-.98.142-1.33.426q-.525.426-.78 1.13c-.16.466-.25.978-.25 1.534 0 .561.09 1.074.25 1.54q.255.699.78 1.12c.35.28.8.42 1.33.42m9.62 4.705c-.69 0-1.29-.091-1.79-.273a3.5 3.5 0 0 1-1.22-.722 3 3 0 0 1-.7-.983l1.46-.602c.1.167.24.343.41.528.17.19.41.351.7.483.3.133.69.199 1.16.199q.96 0 1.59-.471.63-.466.63-1.489v-1.716h-.1a4 4 0 0 1-.45.619 2.4 2.4 0 0 1-.78.591c-.34.167-.77.25-1.3.25-.69 0-1.31-.161-1.87-.483-.55-.325-.98-.805-1.3-1.437q-.48-.955-.48-2.347c0-.928.16-1.723.47-2.386.32-.663.75-1.171 1.31-1.523.55-.356 1.18-.534 1.88-.534.54 0 .98.091 1.31.273q.495.267.78.625c.19.238.33.449.44.631h.12v-1.415h1.67v8.92c0 .75-.18 1.366-.53 1.847q-.525.722-1.41 1.068c-.59.231-1.26.347-2 .347m-.02-4.995c.49 0 .9-.113 1.24-.341.34-.231.6-.56.77-.988q.27-.648.27-1.551c0-.588-.09-1.105-.26-1.552-.18-.447-.43-.795-.77-1.045-.34-.254-.75-.381-1.25-.381-.51 0-.94.133-1.28.398-.34.261-.6.617-.77 1.068s-.26.955-.26 1.512q0 .857.27 1.505c.17.432.43.769.77 1.012.34.242.77.363 1.27.363m7.93-3.642V334h-1.7v-8.727h1.64v1.42h.1c.2-.462.52-.833.95-1.113.43-.281.97-.421 1.63-.421q.885 0 1.56.375c.45.246.79.614 1.04 1.102s.37 1.093.37 1.813V334h-1.7v-5.347c0-.632-.16-1.126-.49-1.483-.33-.359-.79-.539-1.36-.539q-.6 0-1.05.255c-.31.171-.55.421-.73.75-.17.326-.26.72-.26 1.182m7.87 5.182v-8.727h1.7V334zm.86-10.074c-.3 0-.55-.098-.77-.295a1 1 0 0 1-.31-.716c0-.281.11-.519.31-.716.22-.201.47-.301.77-.301q.435 0 .75.301a.964.964 0 0 1 0 1.432q-.315.295-.75.295m7.2 1.347v1.363h-4.77v-1.363zm-3.49-2.091h1.7v8.256c0 .329.04.577.14.744a.8.8 0 0 0 .38.335c.16.057.34.085.52.085q.21 0 .36-.028l.24-.046.3 1.404a2.3 2.3 0 0 1-.42.113 3.3 3.3 0 0 1-.68.069c-.44.007-.86-.072-1.25-.239-.38-.167-.7-.424-.94-.773-.23-.348-.35-.786-.35-1.312zm5.36 10.818v-8.727h1.7V334zm.86-10.074c-.29 0-.55-.098-.76-.295a.95.95 0 0 1-.31-.716c0-.281.1-.519.31-.716.21-.201.47-.301.76-.301.3 0 .55.1.76.301a.964.964 0 0 1 0 1.432c-.21.197-.46.295-.76.295m6.81 10.25c-.82 0-1.54-.187-2.15-.562s-1.08-.9-1.42-1.574c-.33-.674-.5-1.462-.5-2.364 0-.905.17-1.697.5-2.375.34-.678.81-1.204 1.42-1.579s1.33-.563 2.15-.563c.81 0 1.53.188 2.14.563s1.08.901 1.42 1.579c.33.678.5 1.47.5 2.375 0 .902-.17 1.69-.5 2.364-.34.674-.81 1.199-1.42 1.574s-1.33.562-2.14.562m0-1.426q.795 0 1.32-.42c.35-.281.6-.654.77-1.12s.26-.979.26-1.54c0-.556-.09-1.068-.26-1.534-.17-.469-.42-.846-.77-1.13q-.525-.426-1.32-.426c-.53 0-.98.142-1.33.426q-.525.426-.78 1.13c-.16.466-.25.978-.25 1.534 0 .561.09 1.074.25 1.54q.255.699.78 1.12c.35.28.8.42 1.33.42m7.66-3.932V334h-1.7v-8.727h1.63v1.42h.11c.2-.462.51-.833.94-1.113.43-.281.98-.421 1.63-.421q.9 0 1.56.375c.45.246.8.614 1.04 1.102.25.489.37 1.093.37 1.813V334h-1.7v-5.347c0-.632-.16-1.126-.49-1.483-.33-.359-.78-.539-1.36-.539q-.585 0-1.05.255-.45.257-.72.75c-.17.326-.26.72-.26 1.182m14.4-1.415-1.54.273a1.7 1.7 0 0 0-.3-.562 1.6 1.6 0 0 0-.56-.438c-.24-.114-.53-.17-.88-.17-.48 0-.88.108-1.21.324q-.48.318-.48.823c0 .292.11.527.32.705q.33.267 1.05.437l1.39.319c.8.185 1.4.471 1.79.858.4.386.59.888.59 1.505q0 .784-.45 1.398-.45.607-1.26.955-.795.346-1.86.346c-.97 0-1.77-.208-2.39-.625-.62-.42-.99-1.017-1.13-1.79l1.64-.25q.15.642.63.972c.32.216.73.324 1.24.324.56 0 1-.116 1.34-.347.33-.235.5-.521.5-.858 0-.272-.1-.502-.31-.687-.2-.186-.51-.326-.92-.421l-1.48-.324c-.82-.185-1.42-.481-1.81-.886s-.58-.918-.58-1.54c0-.515.15-.966.43-1.352q.435-.579 1.2-.903c.5-.22 1.09-.33 1.74-.33.94 0 1.69.205 2.23.614.54.405.9.949 1.07 1.63M316.278 314v-11.636h7.296v1.511h-5.54v3.545h5.159v1.506h-5.159v3.563h5.608V314zm10.624 0h-1.864l4.188-11.636h2.028L335.442 314h-1.864l-3.29-9.523h-.091zm.312-4.557h6.046v1.477h-6.046zm9.908 4.557v-11.636h4.148q1.357 0 2.25.494t1.335 1.352q.443.852.443 1.921 0 1.074-.449 1.931-.443.853-1.34 1.353-.892.494-2.245.494h-2.852v-1.489h2.693q.858 0 1.392-.295a1.85 1.85 0 0 0 .784-.818q.25-.518.25-1.176 0-.66-.25-1.171a1.8 1.8 0 0 0-.79-.801q-.534-.29-1.409-.29h-2.204V314zm14.333 3.273v-12h1.659v1.415h.142q.147-.274.426-.631.278-.358.773-.625.494-.273 1.306-.273 1.058 0 1.887.534t1.301 1.54q.477 1.005.477 2.42t-.471 2.427q-.473 1.005-1.296 1.551-.823.54-1.881.539-.795 0-1.301-.267a2.5 2.5 0 0 1-.784-.625 5 5 0 0 1-.437-.636h-.103v4.631zm1.664-7.637q0 .921.267 1.614t.773 1.085q.505.387 1.239.387.761 0 1.272-.404.512-.41.773-1.108.267-.699.267-1.574a4.4 4.4 0 0 0-.261-1.551q-.256-.687-.773-1.085-.512-.398-1.278-.398-.739 0-1.25.381-.506.381-.767 1.062-.262.682-.262 1.591m10.75 4.557a3.6 3.6 0 0 1-1.5-.307 2.5 2.5 0 0 1-1.062-.903q-.387-.591-.387-1.449 0-.739.285-1.216.284-.477.767-.756a4 4 0 0 1 1.079-.42 11 11 0 0 1 1.216-.216l1.273-.148q.489-.062.71-.198.222-.137.222-.444v-.039q0-.745-.421-1.154-.414-.41-1.239-.409-.857 0-1.352.381-.489.375-.676.835l-1.596-.364q.283-.795.829-1.284.551-.494 1.267-.716a5 5 0 0 1 1.506-.227q.523 0 1.108.125.59.12 1.102.443.517.324.847.926.329.597.329 1.552V314h-1.659v-1.193h-.068q-.165.33-.494.648-.33.318-.847.528t-1.239.21m.37-1.363q.704 0 1.204-.279.506-.278.767-.727.267-.454.267-.972v-1.125q-.09.091-.352.171-.256.074-.585.13-.33.052-.642.097l-.523.068a4.2 4.2 0 0 0-.903.21 1.56 1.56 0 0 0-.648.427q-.239.272-.239.727 0 .63.466.954.466.319 1.188.319m6.2 1.17v-8.727h1.642v1.386h.091q.238-.705.841-1.108a2.4 2.4 0 0 1 1.375-.409q.159 0 .375.011.222.011.346.029v1.625a3 3 0 0 0-.363-.063 4 4 0 0 0-.523-.039q-.602 0-1.074.255a1.9 1.9 0 0 0-1.011 1.71V314zm10.73-8.727v1.363h-4.767v-1.363zm-3.489-2.091h1.699v8.256q0 .493.148.744a.77.77 0 0 0 .381.335q.238.085.517.085.204 0 .358-.028l.238-.046.307 1.404a3 3 0 0 1-.42.113 3.3 3.3 0 0 1-.682.069 3 3 0 0 1-1.25-.239 2.14 2.14 0 0 1-.938-.773q-.358-.523-.358-1.312zm7.067 5.636V314h-1.699v-8.727h1.631v1.42h.108q.301-.693.943-1.113.648-.421 1.631-.421.891 0 1.562.375.67.37 1.04 1.102.369.733.369 1.813V314h-1.698v-5.347q0-.948-.495-1.483-.494-.539-1.358-.539-.59 0-1.051.255a1.84 1.84 0 0 0-.721.75q-.262.489-.262 1.182m11.625 5.358q-1.29 0-2.221-.551a3.73 3.73 0 0 1-1.432-1.563q-.5-1.011-.5-2.369 0-1.341.5-2.363a3.9 3.9 0 0 1 1.409-1.597q.909-.574 2.125-.574a4.3 4.3 0 0 1 1.432.244q.693.245 1.244.767.55.524.869 1.358.318.83.318 2.017v.603h-6.937v-1.273h5.273q0-.67-.273-1.187a2.06 2.06 0 0 0-.767-.824q-.489-.302-1.148-.302-.716 0-1.25.353a2.36 2.36 0 0 0-.818.909 2.6 2.6 0 0 0-.284 1.21v.994q0 .876.307 1.489.312.614.869.938.557.318 1.301.318a2.7 2.7 0 0 0 .881-.137q.398-.141.687-.42a1.8 1.8 0 0 0 .444-.688l1.608.29q-.193.71-.694 1.244a3.35 3.35 0 0 1-1.244.824q-.744.29-1.699.29m5.629-.176v-8.727h1.642v1.386h.091q.239-.705.841-1.108a2.4 2.4 0 0 1 1.375-.409q.159 0 .375.011.222.011.347.029v1.625a3 3 0 0 0-.364-.063 3.5 3.5 0 0 0-.522-.039q-.603 0-1.074.255a1.9 1.9 0 0 0-1.012 1.71V314zm12.681-6.597-1.54.273a1.8 1.8 0 0 0-.307-.562 1.5 1.5 0 0 0-.557-.438q-.351-.17-.88-.17-.722 0-1.205.324-.483.318-.483.823 0 .438.324.705t1.046.437l1.386.319q1.204.277 1.795.858.591.58.591 1.505 0 .784-.454 1.398-.45.607-1.256.955-.8.346-1.858.346-1.466 0-2.392-.625-.926-.63-1.136-1.79l1.642-.25q.153.642.63.972.478.324 1.245.324.836 0 1.335-.347.5-.353.5-.858a.89.89 0 0 0-.307-.687q-.301-.279-.926-.421l-1.477-.324q-1.222-.278-1.807-.886-.58-.607-.58-1.54a2.2 2.2 0 0 1 .432-1.352q.432-.579 1.193-.903.762-.33 1.745-.33 1.414 0 2.227.614.813.608 1.074 1.63m3.737 1.415V314h-1.699v-11.636h1.676v4.329h.108q.307-.705.938-1.119.63-.415 1.647-.415.898 0 1.569.369.676.37 1.045 1.103.375.728.375 1.818V314h-1.699v-5.347q0-.96-.494-1.488-.495-.534-1.375-.534-.602 0-1.08.255a1.85 1.85 0 0 0-.744.75q-.267.489-.267 1.182m7.926 5.182v-8.727h1.699V314zm.858-10.074a1.08 1.08 0 0 1-.761-.295.96.96 0 0 1-.313-.716q0-.421.313-.716.318-.301.761-.301t.756.301a.94.94 0 0 1 .318.716.95.95 0 0 1-.318.716 1.06 1.06 0 0 1-.756.295m3.127 13.347v-12h1.659v1.415h.142q.147-.274.426-.631.278-.358.773-.625.494-.273 1.306-.273 1.058 0 1.887.534t1.301 1.54q.477 1.005.477 2.42t-.471 2.427q-.473 1.005-1.296 1.551-.823.54-1.881.539-.795 0-1.301-.267a2.5 2.5 0 0 1-.784-.625 5 5 0 0 1-.437-.636h-.103v4.631zm1.664-7.637q0 .921.267 1.614t.773 1.085q.505.387 1.239.387.761 0 1.272-.404.512-.41.773-1.108.267-.699.267-1.574a4.4 4.4 0 0 0-.261-1.551q-.256-.687-.773-1.085-.512-.398-1.278-.398-.739 0-1.25.381-.506.381-.767 1.062-.262.682-.262 1.591m-111.699 14.637v1.363h-4.931v-1.363zM316.716 333v-9.739q0-.818.358-1.358a2.2 2.2 0 0 1 .949-.812 3 3 0 0 1 1.284-.273q.511 0 .875.085.363.08.54.148l-.398 1.375a8 8 0 0 0-.307-.079 1.7 1.7 0 0 0-.455-.052q-.619 0-.886.307-.261.307-.261.887V333zm8.665.176q-1.228 0-2.142-.562a3.8 3.8 0 0 1-1.421-1.574q-.506-1.011-.506-2.364 0-1.358.506-2.375a3.8 3.8 0 0 1 1.421-1.579q.914-.563 2.142-.563t2.142.563 1.42 1.579.506 2.375q0 1.353-.506 2.364a3.8 3.8 0 0 1-1.42 1.574q-.915.562-2.142.562m.005-1.426q.796 0 1.319-.42.522-.421.772-1.12.256-.699.256-1.54 0-.834-.256-1.534a2.5 2.5 0 0 0-.772-1.13q-.523-.426-1.319-.426-.801 0-1.329.426a2.54 2.54 0 0 0-.779 1.13q-.25.7-.25 1.534 0 .841.25 1.54.256.699.779 1.12.528.42 1.329.42m5.959 1.25v-8.727h1.642v1.386h.091q.239-.705.841-1.108a2.4 2.4 0 0 1 1.375-.409q.159 0 .375.011.221.011.347.029v1.625a3 3 0 0 0-.364-.063 3.5 3.5 0 0 0-.523-.039q-.601 0-1.074.255a1.91 1.91 0 0 0-1.011 1.71V333zm10.375 0v-8.727h1.631v1.42h.108q.273-.721.892-1.125.62-.41 1.483-.409.875 0 1.466.409.596.41.88 1.125h.091q.313-.699.995-1.113.681-.421 1.625-.421 1.187 0 1.937.744.756.745.756 2.245V333h-1.699v-5.693q0-.887-.483-1.284a1.76 1.76 0 0 0-1.153-.398q-.83 0-1.29.511-.46.506-.46 1.302V333h-1.694v-5.801q0-.71-.443-1.142t-1.153-.432q-.483 0-.892.256a1.87 1.87 0 0 0-.654.699 2.13 2.13 0 0 0-.244 1.039V333zm17.902.176q-1.29 0-2.221-.551a3.73 3.73 0 0 1-1.432-1.563q-.5-1.011-.5-2.369 0-1.341.5-2.363a3.9 3.9 0 0 1 1.409-1.597q.909-.574 2.125-.574a4.3 4.3 0 0 1 1.432.244q.693.245 1.244.767.55.524.869 1.358.318.83.318 2.017v.603h-6.937v-1.273h5.273q0-.67-.273-1.187a2.06 2.06 0 0 0-.767-.824q-.489-.302-1.148-.302-.716 0-1.25.353a2.36 2.36 0 0 0-.818.909 2.6 2.6 0 0 0-.284 1.21v.994q0 .876.307 1.489.312.614.869.938.557.318 1.301.318a2.7 2.7 0 0 0 .881-.137q.398-.141.687-.42a1.8 1.8 0 0 0 .444-.688l1.608.29q-.193.71-.694 1.244a3.35 3.35 0 0 1-1.244.824q-.744.29-1.699.29m7.328-5.358V333h-1.699v-8.727h1.631v1.42h.108q.301-.693.943-1.113.648-.421 1.631-.421.892 0 1.562.375.67.37 1.04 1.102t.37 1.813V333h-1.699v-5.347q0-.948-.495-1.483-.494-.539-1.358-.539-.59 0-1.051.255a1.84 1.84 0 0 0-.721.75q-.262.489-.262 1.182m11.938-3.545v1.363h-4.767v-1.363zm-3.489-2.091h1.699v8.256q0 .493.148.744a.77.77 0 0 0 .38.335q.24.085.517.085.205 0 .358-.028.154-.028.239-.046l.307 1.404a3 3 0 0 1-.421.113 3.3 3.3 0 0 1-.681.069 3 3 0 0 1-1.25-.239 2.14 2.14 0 0 1-.938-.773q-.358-.523-.358-1.312zm7.908 11.011a3.6 3.6 0 0 1-1.5-.307 2.53 2.53 0 0 1-1.063-.903q-.386-.591-.386-1.449 0-.739.284-1.216t.767-.756a4 4 0 0 1 1.08-.42q.596-.143 1.216-.216l1.272-.148q.489-.062.711-.198.22-.137.221-.444v-.039q0-.745-.42-1.154-.416-.41-1.239-.409-.858 0-1.352.381-.489.375-.676.835l-1.597-.364q.284-.795.83-1.284a3.4 3.4 0 0 1 1.267-.716 5 5 0 0 1 1.505-.227q.523 0 1.108.125.591.12 1.103.443.516.324.846.926.33.597.33 1.552V333h-1.659v-1.193h-.069q-.164.33-.494.648t-.847.528-1.238.21m.369-1.363q.704 0 1.205-.279.505-.278.767-.727.267-.454.267-.972v-1.125q-.091.091-.353.171-.255.074-.585.13-.328.052-.642.097l-.523.068a4.3 4.3 0 0 0-.903.21 1.56 1.56 0 0 0-.648.427q-.238.272-.238.727 0 .63.466.954.465.319 1.187.319m7.899-10.466V333h-1.699v-11.636zM318.034 352l-2.568-8.727h1.756l1.71 6.409h.085l1.716-6.409h1.756l1.704 6.38h.085l1.699-6.38h1.756L325.17 352h-1.732l-1.773-6.301h-.131L319.761 352zm14.807.176q-1.29 0-2.222-.551a3.74 3.74 0 0 1-1.431-1.563q-.5-1.011-.5-2.369 0-1.341.5-2.363a3.9 3.9 0 0 1 1.409-1.597q.909-.574 2.125-.574.738 0 1.431.244.694.245 1.245.767.55.524.869 1.358.318.83.318 2.017v.603h-6.937v-1.273h5.272a2.5 2.5 0 0 0-.272-1.187 2.06 2.06 0 0 0-.767-.824q-.49-.302-1.148-.302-.716 0-1.25.353a2.36 2.36 0 0 0-.818.909q-.285.556-.284 1.21v.994q0 .876.307 1.489.312.614.869.938.557.318 1.301.318.483 0 .881-.137.398-.141.687-.42t.443-.688l1.608.29q-.194.71-.693 1.244a3.35 3.35 0 0 1-1.244.824q-.744.29-1.699.29m7.328-11.812V352h-1.699v-11.636zm3.984 0V352h-1.698v-11.636zM346.575 352v-11.636h1.699v4.324h.102q.148-.274.427-.631.278-.358.772-.625.494-.273 1.307-.273 1.057 0 1.886.534.83.534 1.302 1.54.477 1.005.477 2.42t-.472 2.427q-.471 1.005-1.295 1.551-.823.54-1.881.539-.795 0-1.301-.267a2.5 2.5 0 0 1-.784-.625 5 5 0 0 1-.438-.636h-.142V352zm1.665-4.364q0 .921.267 1.614t.773 1.085q.506.387 1.238.387.762 0 1.273-.404.512-.41.773-1.108.267-.699.267-1.574a4.4 4.4 0 0 0-.261-1.551q-.256-.687-.773-1.085-.511-.398-1.279-.398-.738 0-1.25.381-.505.381-.767 1.062-.261.682-.261 1.591m11.976 4.54q-1.29 0-2.222-.551a3.74 3.74 0 0 1-1.432-1.563q-.5-1.011-.5-2.369 0-1.341.5-2.363.506-1.023 1.41-1.597.909-.574 2.125-.574.738 0 1.431.244.694.245 1.245.767.55.524.869 1.358.318.83.318 2.017v.603h-6.937v-1.273h5.272a2.5 2.5 0 0 0-.272-1.187 2.06 2.06 0 0 0-.767-.824q-.49-.302-1.148-.302-.716 0-1.25.353a2.36 2.36 0 0 0-.818.909q-.284.556-.284 1.21v.994q0 .876.306 1.489.313.614.87.938.557.318 1.301.318.483 0 .881-.137.398-.141.687-.42t.443-.688l1.608.29q-.194.71-.693 1.244a3.35 3.35 0 0 1-1.244.824q-.744.29-1.699.29m5.629-.176v-8.727h1.699V352zm.858-10.074a1.08 1.08 0 0 1-.761-.295.96.96 0 0 1-.313-.716q0-.421.313-.716.318-.301.761-.301t.756.301a.94.94 0 0 1 .318.716.95.95 0 0 1-.318.716 1.06 1.06 0 0 1-.756.295m4.825 4.892V352h-1.698v-8.727h1.63v1.42h.108q.301-.693.943-1.113.648-.421 1.631-.421.892 0 1.563.375.67.37 1.039 1.102.37.733.37 1.813V352h-1.699v-5.347q0-.948-.495-1.483-.494-.539-1.358-.539-.59 0-1.051.255a1.84 1.84 0 0 0-.721.75q-.261.489-.262 1.182m11.523 8.637q-1.04 0-1.79-.273-.744-.273-1.216-.722a3 3 0 0 1-.704-.983l1.46-.602q.153.25.409.528.261.285.705.483.448.2 1.153.199.966 0 1.597-.471.63-.466.63-1.489v-1.716h-.107q-.154.279-.444.619-.283.342-.784.591-.5.25-1.301.25a3.64 3.64 0 0 1-1.864-.483q-.823-.488-1.306-1.437-.478-.955-.478-2.347t.472-2.386q.477-.995 1.307-1.523a3.4 3.4 0 0 1 1.88-.534q.813 0 1.313.273.5.267.778.625.285.357.438.631h.125v-1.415h1.665v8.92q0 1.125-.523 1.847t-1.415 1.068q-.886.347-2 .347m-.017-4.995q.734 0 1.239-.341.511-.346.772-.988.267-.648.267-1.551 0-.882-.261-1.552t-.767-1.045q-.506-.381-1.25-.381-.767 0-1.278.398a2.4 2.4 0 0 0-.773 1.068 4.3 4.3 0 0 0-.256 1.512q0 .857.262 1.505.26.648.772 1.012.517.363 1.273.363" fill="#fff"/><path stroke="#F5F5F5" stroke-width="10" d="M0 446h1724"/><path fill="#EAEAEA" d="M94 17h10v566H94zm1552 0h10v566h-10zM288 79h10v369h-10zm1164 0h10v369h-10zm-970 63h10v305h-10zm776 0h10v305h-10zm-582 54h10v252h-10zm194 39h10v213h-10zm194-39h10v252h-10z"/><path d="M67 5s674.722 237.628 814.247 229.811C1020.77 226.995 1683 5 1683 5" stroke="#F5F5F5" stroke-width="10"/></svg>