<svg width="146" height="146" viewBox="0 0 146 146" fill="none" xmlns="http://www.w3.org/2000/svg"><g clip-path="url(#a)"><path d="M88.12 84.053c2.013-.5 1.873-.267 1.378-2.282l-5.02-7.828a14.4 14.4 0 0 1-1.998-10.578l1.443-7.248c-.495-2.015.52-1.402-1.494-.903l-4.435 4.262a14.4 14.4 0 0 1-11.48 3.94l-10.516-1.108c-2.014.5-1.313-.66-.819 1.355l4.978 4.963a14.39 14.39 0 0 1 3.406 14.963l-2.125 6.044c.494 2.014-.164 1.617 1.85 1.118l4.285-4.61a14.39 14.39 0 0 1 14.982-3.896z" fill="#fff"/><path d="M52.907 48.89c-2.243-6.357-8.719-10.373-15.35-9.167-3.66.665-7.097 2.804-9.292 6.437s-2.493 7.671-1.378 11.221c2.017 6.432 8.585 10.295 15.255 9.325l16.216-2.36-5.452-15.454z" fill="#fff" stroke="#fff" stroke-width="1.308" stroke-miterlimit="10"/><path d="m56.561 63.26 12.21 7.378z" fill="#fff"/><path d="m56.561 63.26 12.21 7.378" stroke="#fff" stroke-width="2.616" stroke-miterlimit="10"/><path d="M97.075 52.94c6.356-2.255 10.38-8.744 9.187-15.38-.658-3.662-2.789-7.098-6.415-9.289s-7.658-2.48-11.209-1.36c-6.428 2.031-10.3 8.612-9.343 15.286l2.33 16.228 15.449-5.485z" fill="#fff" stroke="#fff" stroke-width="1.308" stroke-miterlimit="10"/><path d="M82.713 56.624 75.32 68.859z" fill="#fff"/><path d="M82.713 56.624 75.32 68.859" stroke="#fff" stroke-width="2.616" stroke-miterlimit="10"/><path d="M92.925 97.391c2.243 6.357 8.718 10.373 15.35 9.168 3.66-.666 7.097-2.805 9.292-6.438s2.492-7.67 1.378-11.22c-2.017-6.432-8.585-10.295-15.255-9.325l-16.217 2.36 5.453 15.454z" fill="#fff" stroke="#fff" stroke-width="1.308" stroke-miterlimit="10"/><path d="m89.27 83.024-12.211-7.379z" fill="#fff"/><path d="m89.27 83.024-12.211-7.379" stroke="#fff" stroke-width="2.616" stroke-miterlimit="10"/><path d="M48.648 92.893c-6.355 2.256-10.379 8.745-9.186 15.38.658 3.662 2.79 7.099 6.415 9.289 3.626 2.191 7.658 2.481 11.208 1.36 6.43-2.031 10.3-8.612 9.343-15.286l-2.33-16.227-15.448 5.485z" fill="#fff" stroke="#fff" stroke-width="1.308" stroke-miterlimit="10"/><path d="m63.01 89.209 7.392-12.235z" fill="#fff"/><path d="m63.01 89.209 7.392-12.235" stroke="#fff" stroke-width="2.616" stroke-miterlimit="10"/></g><defs><clipPath id="a"><path fill="#fff" d="m55.048.228 90.724 54.82-54.819 90.724L.229 90.952z"/></clipPath></defs></svg>