<svg width="128" height="78" viewBox="0 0 128 78" fill="none" xmlns="http://www.w3.org/2000/svg"><path fill-rule="evenodd" clip-rule="evenodd" d="M50.796 14.422c0-11.079.015-14.314.066-14.365s1.343-.064 5.604-.053l5.538.014.014 14.002.014 14.002h2.767l.014-14.002.013-14.002 5.57-.014c4.63-.011 5.58-.001 5.631.061.046.055.066 3.882.077 14.361l.014 14.287.304.035c.167.019.743.091 1.28.16.536.07 1.015.11 1.065.092.083-.032.09-.766.09-9.104v-9.07l5.577.015 5.576.014.014 10.263c.011 8.12.028 10.274.083 10.316.038.029.237.097.443.15.206.055.388.121.405.148.016.027.082.05.144.05.103 0 1.796.54 2.066.66.06.026.297.11.526.187.458.153 1.099.392 1.356.505.09.04.347.143.57.227s.416.174.432.2c.015.024.066.045.111.045.046 0 .238.072.426.16s.542.25.785.362a51 51 0 0 1 2.537 1.263c1.942 1.095 3.104 1.885 4.408 2.997.772.658 2.042 2.033 2.268 2.455.042.08.031.119-.014.118a13 13 0 0 0-3.778-2.567 53 53 0 0 0-2.958-1.483c-.547-.246-1.353-.583-1.494-.625a5 5 0 0 1-.426-.172 2.5 2.5 0 0 0-.322-.13c-.02 0-.289-.096-.599-.213s-.662-.244-.784-.281a5 5 0 0 1-.456-.175 1.6 1.6 0 0 0-.28-.106c-.025 0-.317-.087-.65-.193a56 56 0 0 0-3.12-.916 10 10 0 0 1-.673-.193 2 2 0 0 0-.338-.081c-.162-.03-.519-.116-.793-.19a46 46 0 0 0-2.539-.585c-.3-.059-.699-.143-.885-.187a22 22 0 0 0-1.031-.197c-.38-.065-.792-.142-.914-.173a4 4 0 0 0-.387-.078 32 32 0 0 1-1.55-.25 20 20 0 0 0-1.043-.163c-.27-.034-.693-.093-.941-.134a8 8 0 0 0-.666-.083 1 1 0 0 1-.315-.062.8.8 0 0 0-.304-.053 8 8 0 0 1-.682-.056l-1.673-.196a40 40 0 0 0-1.614-.164c-.23-.012-.812-.06-1.294-.108a47 47 0 0 0-1.32-.111c-.243-.015-.58-.038-.747-.053a116 116 0 0 0-3.528-.175c-.918-.024-9.294-.024-10.213 0-.762.02-3.032.133-3.528.175a38 38 0 0 1-.664.05c-.426.026-.86.063-1.688.142a31 31 0 0 1-1.018.08c-.225.013-.947.086-1.605.164l-1.673.196c-.262.03-.574.056-.694.056s-.242.022-.27.05c-.03.027-.228.064-.44.083-.396.035-.956.116-2.187.316-.38.062-.99.16-1.356.217-.365.057-.926.154-1.245.216s-.669.124-.775.138a14 14 0 0 0-1.19.243 9 9 0 0 1-.72.143c-.152.02-.389.07-.526.113-.33.101-.62.173-1.023.25-.183.036-.557.123-.83.193-.275.07-.648.165-.83.21a52 52 0 0 0-1.8.482c-.106.035-.405.12-.664.19s-.582.166-.72.213c-.136.046-.348.114-.47.15a9 9 0 0 0-.498.167 10 10 0 0 1-.609.198 3 3 0 0 0-.387.131c-.03.02-.168.069-.305.108a6 6 0 0 0-.36.114c-.06.024-.36.136-.664.25-.304.112-.659.252-.788.31s-.26.104-.293.104-.245.087-.472.193a4 4 0 0 1-.458.194 3 3 0 0 0-.387.165 4 4 0 0 1-.372.166c-.066 0-2.111 1.023-2.607 1.303-.292.165-.541.3-.553.3-.021 0-.157.084-.772.476l-.022.008q-.13.085-.283.189c-.498.325-.902.61-1.119.786l-.35.26q-.086.005-.039.03c-.261.197-.514.396-.74.585l-.011.004c-.166.043-.082-.107.269-.484.66-.71 1.014-1.041 1.897-1.78.517-.43 1.947-1.451 2.562-1.827.755-.462 1.701-1.019 1.78-1.048a.4.4 0 0 0 .13-.07c.053-.061 2.224-1.162 2.628-1.332.061-.026.298-.132.526-.236.651-.296.758-.342 1.522-.648.396-.16.794-.321.886-.361s.29-.114.443-.165c.152-.05.351-.125.442-.166s.366-.141.61-.223l1.4-.474c.528-.178.992-.324 1.032-.324s.144-.037.231-.082l.159-.082.028-10.381.027-10.381 5.56-.014c4.41-.011 5.568 0 5.603.055.024.038.044 4.159.045 9.157v9.088l.18-.036c.1-.02.367-.06.595-.09 1.064-.137 1.324-.174 1.647-.232l.346-.063zm-14.031 20.82.014 2.524.015 2.53h1.792c1.583 0 1.796-.01 1.826-.088.019-.048.034-1.354.034-2.901v-2.803a84 84 0 0 0-3.681.739m7.61-1.355.014 3.183.014 3.198h3.598l.014-3.442c.01-2.328.023-3.172.061-3.383q-1.867.194-3.702.444m6.379-.694c.026.279.042 1.588.042 3.452 0 1.912.015 3.515.033 3.563.03.077.24.087 1.793.087s1.763-.01 1.793-.087c.019-.048.034-1.736.034-3.75v-3.52a139 139 0 0 0-3.695.255m7.624-.421.014 3.686.014 3.81h3.598l.027-3.843.027-3.719q-1.829.012-3.68.066m6.394-.06.027 3.713.027 3.843h3.598l.028-3.787.027-3.689q-1.828-.06-3.707-.08m7.583.254.028 3.57c.016 2.053.035 3.738.041 3.746.007.007.82.014 1.806.014 1.584 0 1.797-.01 1.826-.088.019-.048.034-1.651.034-3.563 0-1.66.014-3.066.033-3.417-1.22-.1-2.479-.188-3.768-.262m6.42.507.013.011c.054.068.07.843.07 3.45v3.361H82.4V33.9a117 117 0 0 0-3.624-.426m7.609 1.05.014 2.861.014 2.884h3.598l.014-2.536.014-2.413a49 49 0 0 0-3.654-.796M57.91 5.204a2.1 2.1 0 0 0-.592-.428c-.366-.183-.428-.196-.898-.194-.432.002-.552.025-.837.156a2.02 2.02 0 0 0-.962.943l-.145.308-.014 11.182-.014 11.182h.152c.084 0 .477-.024.873-.053.395-.03 1.211-.084 1.812-.12l1.093-.068V17.095c0-8.123-.016-11.058-.063-11.172-.166-.407-.22-.503-.405-.718m14.317.437a1.98 1.98 0 0 0-.91-.867c-.362-.18-.425-.194-.894-.192-.433.002-.552.025-.837.157-.41.191-.75.526-.953.937l-.153.313-.015 11.063-.015 11.063.651.038 1.62.09a39 39 0 0 1 1.315.087l.347.036-.015-11.243-.014-11.244zM44.182 16.468a2.06 2.06 0 0 0-.87-.867c-.249-.128-.372-.153-.819-.165-.289-.008-.604.005-.7.03-.52.132-1.105.7-1.258 1.218-.08.268-.09 1.019-.09 7.087 0 3.733.02 6.798.042 6.811.023.014.179-.008.346-.047a96 96 0 0 1 2.352-.523c.183-.034.407-.083.498-.109s.257-.062.369-.08c.11-.02.23-.069.264-.11.045-.055.058-1.805.047-6.509l-.015-6.433zm42.037.026a2.2 2.2 0 0 0-.858-.887c-.241-.133-.348-.154-.83-.168-.62-.019-.715 0-1.108.207-.471.25-.797.696-.961 1.318-.05.187-.062 1.795-.05 6.469l.015 6.22.36.063c.198.035.497.094.664.13.416.092.706.15.969.193.223.036 1.214.263 1.584.362.11.03.24.053.291.053.084 0 .09-.515.077-6.842l-.015-6.841zM4.186 49.566a8.7 8.7 0 0 1 3.128-.919c.247-.024 5.131-.04 10.854-.037l10.406.006.014 2.207c.013 1.994.005 2.216-.078 2.308-.089.098-.44.102-9.788.102-9.507 0-9.705.002-10.128.11-.694.177-1 .354-1.531.886-.584.584-.857 1.1-1.054 1.99-.109.491-.128.737-.128 1.603 0 .944.012 1.07.157 1.63.328 1.27.935 2.086 1.888 2.544.332.16.635.26.899.3.272.04 3.445.06 10.003.06h9.605l.084.129c.074.112.084.423.071 2.279l-.015 2.15-.138.07c-.16.08-11.051.091-17.6.017-3.602-.041-3.82-.05-4.345-.164-1.142-.249-2.139-.656-3.047-1.245-1.646-1.068-2.844-3.044-3.236-5.34-.41-2.404-.202-5.042.546-6.895a7.34 7.34 0 0 1 3.433-3.791m27.68 3.39v-4.37l11.748.015 11.748.015.581.13c1.51.335 2.682.961 3.591 1.917.892.938 1.306 1.858 1.455 3.229.034.317.068 3.055.084 6.81l.026 6.28-6.403.038c-7.185.044-18.922-.004-19.579-.079-1.485-.17-2.883-1.008-3.687-2.208-.997-1.489-1.204-3.957-.49-5.826.623-1.63 1.978-2.694 3.97-3.118.37-.079 1.516-.09 10.503-.108l10.087-.02-.002-.177c-.014-1.436-.702-2.31-1.944-2.471-.245-.032-4.636-.054-11.047-.055zm34.109-2c.763-1.191 2.325-2.126 3.86-2.31.198-.023 5.796-.046 12.439-.05l12.079-.007.03.124c.017.069.023 1.045.015 2.17l-.016 2.046-11.54.027-11.54.028-.277.128c-.568.263-.768.567-.77 1.171-.002.334.025.469.135.689.174.347.32.45.832.59.406.111.562.114 9.679.136 5.734.013 9.435.043 9.71.077 1.21.152 2.617.838 3.362 1.639.929 1 1.433 2.41 1.433 4.007 0 1.071-.198 1.94-.655 2.869-.218.443-.34.608-.784 1.057-.904.915-1.932 1.437-3.131 1.59-.67.086-25.296.148-25.51.064a.5.5 0 0 1-.207-.13c-.023-.035-.042-.954-.043-2.041 0-1.904.004-1.981.11-2.088.11-.11.185-.11 11.897-.11 12.044 0 12.127-.002 12.54-.207.528-.262.772-.956.572-1.626-.08-.267-.505-.675-.8-.77-.165-.052-2.39-.078-9.541-.112-6.267-.029-9.506-.064-9.872-.105-1.32-.151-2.579-.723-3.366-1.53-.288-.296-.932-1.19-.932-1.296 0-.025-.059-.177-.132-.337a7 7 0 0 1-.29-.9c-.144-.557-.158-.689-.156-1.549.003-.884.014-.978.183-1.596.198-.724.39-1.185.686-1.647m39.312-2.208c.123-.03.447-.076.72-.1s5.21-.047 10.971-.052l10.475-.007v4.365l-10.032.016-10.032.016-.446.15c-.611.205-1.055.505-1.423.962-.311.385-.981 1.421-.981 1.516 0 .032 4.346.052 11.458.052h11.457l-.014 2.087-.015 2.087-11.444.027-11.445.028.214.442c.654 1.35 1.261 1.87 2.556 2.198.179.045 3.034.072 10.184.094l9.935.03.015 2.162.014 2.16-5.15.04c-6.158.046-15.485-.002-16.381-.084-1.913-.176-3.881-1.096-5.038-2.356-1.492-1.626-2.269-3.984-2.269-6.894 0-3.41 1.246-6.194 3.423-7.649.795-.531 1.883-1 2.721-1.171.168-.035.405-.088.527-.119M55.445 62.632v-2.765l-8.953.006c-6.82.005-9.025.022-9.257.073-.398.089-.696.234-.832.407-.293.371-.354 1.246-.115 1.632.155.25.496.48.85.572.236.061 1.922.075 9.297.075zM.872 70.263c.27-.275.534-.422.9-.5.29-.06 1.013-.02 1.276.07.32.112.681.401.84.672.223.38.303.763.304 1.457v.622H2.92v-.632c0-.597-.008-.64-.142-.8a.6.6 0 0 0-.972.073c-.097.16-.104.321-.104 2.642 0 2.654.004 2.695.285 2.84.289.15.744.052.855-.182.026-.054.06-.447.076-.873l.03-.774.628-.016.628-.015-.023.9c-.02.758-.043.948-.144 1.204a1.7 1.7 0 0 1-.804.873c-.266.14-.333.15-.95.149-.562-.001-.704-.02-.924-.121-.546-.252-.87-.764-.985-1.555-.07-.484-.07-4.35.001-4.847.083-.581.216-.9.497-1.187m35.229.567c.15-.5.681-.949 1.26-1.063.469-.093 1.106-.029 1.44.144.245.126.591.462.7.678.163.324.319 1.18.253 1.387-.032.101-.085.11-.64.11h-.606l-.004-.263c-.007-.441-.11-.69-.337-.812-.163-.088-.239-.099-.409-.056-.316.08-.44.286-.44.734 0 .61.158.867 1.098 1.794 1.097 1.082 1.331 1.521 1.331 2.5 0 .847-.252 1.41-.783 1.746-.37.234-.627.288-1.258.262-.462-.02-.6-.047-.835-.168a1.75 1.75 0 0 1-.714-.704c-.136-.263-.248-.83-.25-1.26v-.4h1.26l.024.505c.023.49.03.51.208.67.166.147.213.161.464.137.209-.02.31-.061.399-.166.243-.282.215-.879-.065-1.356-.077-.131-.507-.604-.957-1.05-.665-.662-.85-.88-.99-1.173-.305-.634-.363-1.48-.15-2.196m18.274-.624c.29-.264.438-.343.793-.42.622-.138 1.24-.047 1.688.247.562.369.766.868.772 1.887l.003.636-.622.016-.623.015v-.513c0-.282-.027-.608-.06-.723-.1-.366-.541-.535-.877-.337-.058.034-.105.06-.143.096-.168.157-.168.496-.183 2.496-.01 1.247-.002 2.399.018 2.56.05.407.202.57.562.605.252.024.298.01.467-.14l.188-.168.02-.808.018-.808.618.016.617.015.018.553c.041 1.304-.244 2.02-.954 2.395-.262.138-.33.148-.973.148-.644 0-.712-.01-.974-.148-.466-.246-.721-.592-.876-1.19-.125-.481-.128-4.951-.004-5.478.107-.453.246-.714.507-.952m37.261.586a1.67 1.67 0 0 1 1.24-1.025c.755-.149 1.55.053 1.935.49.093.106.233.331.311.5.126.27.144.394.164 1.066l.022.76h-1.285v-.63c0-.598-.008-.642-.142-.8a.6.6 0 0 0-.972.072c-.097.16-.104.32-.104 2.622 0 2.703.005 2.748.337 2.885.218.09.592.035.737-.11.107-.107.117-.187.133-1.051l.018-.935-.267-.017-.266-.017v-1.217h1.771v1.631c0 1.573-.005 1.643-.127 1.945-.154.38-.485.735-.833.891-.36.162-1.224.2-1.619.07-.581-.19-.925-.545-1.102-1.139-.109-.362-.113-.496-.098-3.022.015-2.638.015-2.643.147-2.969m32.183-.088c.275-.53.652-.822 1.209-.94.274-.058.919-.028 1.217.056.345.097.723.39.912.707.21.352.296.793.296 1.524v.536l-.623-.015-.622-.016-.028-.611c-.031-.68-.096-.844-.382-.962a.63.63 0 0 0-.675.14l-.133.143-.016 2.523c-.011 1.833.003 2.566.05 2.68.177.428.943.413 1.095-.022.034-.098.061-.538.061-.994v-.818l-.263-.017-.263-.016v-1.217h1.771l.015 1.434c.008.81-.01 1.566-.042 1.739-.106.577-.418 1.008-.914 1.266-.226.118-.372.148-.808.167-.955.042-1.47-.212-1.821-.898l-.193-.38v-5.705zM4.967 77.947v-8.131l.65.015.651.016.015 3.925c.009 2.16.002 3.982-.014 4.05-.03.12-.053.125-.666.125zm1.968-7.485a8 8 0 0 1-.086-.567c0-.06.14-.076.663-.076.643 0 .664.004.69.125.028.133.177 1.12.364 2.418.064.441.178 1.213.253 1.714.076.502.165 1.124.2 1.383.034.258.079.49.1.513.02.024.078-.25.128-.608s.166-1.162.258-1.785.23-1.556.305-2.073.162-1.09.192-1.272a7 7 0 0 0 .057-.373c0-.023.275-.042.61-.042.45 0 .608.018.608.07 0 .037-.063.467-.14.953-.2 1.272-.577 3.722-.826 5.363a57 57 0 0 1-.214 1.327l-.072.387H8.096l-.04-.249-.156-.967c-.064-.396-.164-1.043-.223-1.438s-.167-1.117-.242-1.603l-.275-1.797a81 81 0 0 0-.225-1.403m4.943 7.417c-.055-.086-.063-7.97-.009-8.025.021-.02.326-.031.678-.023l.64.016v8.072l-.632.016c-.469.011-.644-.003-.678-.056m2.2-.02c-.047-.122-.042-7.957.005-8.004.021-.022.326-.032.678-.024l.64.016.014 3.414.014 3.414h.985c.692 0 1.004.02 1.051.066.07.07.096.955.033 1.118-.03.077-.233.088-1.71.088s-1.68-.01-1.71-.088m6.638-7.404c.047-.274.097-.529.11-.567.017-.051.26-.069.962-.069.636 0 .855-.015.943.085.058.066.058.182.084.385.02.152.11.737.2 1.3.268 1.666.43 2.673.607 3.787.092.578.216 1.336.276 1.686.089.518.147.736.065.825-.072.08-.254.06-.62.06-.365 0-.664-.008-.664-.018 0-.072-.175-1.243-.201-1.347-.033-.13-.036-.131-.76-.116l-.727.016-.102.608c-.056.334-.113.664-.126.732-.023.12-.046.125-.6.125-.317 0-.588-.02-.602-.042-.034-.056.06-.685.519-3.47.06-.364.16-.986.221-1.381.288-1.837.335-2.133.415-2.599m3.858 3.483c-.008-2.19-.002-4.012.012-4.05.02-.05.238-.069.826-.069h.8l.086.263c.048.144.123.412.167.594.044.183.16.618.256.968s.295 1.083.442 1.63l.267.996.018-2.212.018-2.211.596-.016.595-.016-.014 4.052-.014 4.052-.632.016c-.348.008-.653-.006-.679-.032s-.173-.518-.326-1.094c-.154-.575-.355-1.32-.447-1.654-.159-.58-.22-.808-.594-2.212l-.162-.608-.02 2.792-.018 2.792h-1.162zm4.996 3.98-.015-4.053-.014-4.054 1.343.02c1.216.018 1.366.031 1.592.135.474.217.725.501.922 1.042.093.253.101.498.101 2.847 0 2.548 0 2.575-.128 2.944q-.249.716-.928.986c-.31.124-.395.13-1.6.132zm10.544-6.886V69.82h3.927l.031.125c.017.068.024.335.015.594l-.016.47-.65.016-.65.015-.014 3.44-.014 3.44-.65.016-.65.015-.014-3.443-.015-3.444-.65-.015zm4.516 6.827c-.046-.12-.042-7.957.004-8.003.02-.02.569-.037 1.219-.037 1.038 0 1.22.014 1.495.11.518.182.707.34.908.76.171.356.181.413.204 1.149.035 1.11-.151 1.738-.595 2.007l-.158.097.223.187c.13.109.282.315.365.495.135.295.143.371.182 1.664.022.745.057 1.423.079 1.507l.039.152h-.636c-.524 0-.65-.017-.713-.092-.057-.07-.082-.404-.103-1.396-.025-1.157-.04-1.324-.134-1.48-.14-.23-.297-.294-.727-.294h-.357v3.262h-.63c-.524 0-.637-.015-.665-.088m4.644-1.101-.016-3.471-.015-3.471.652.015.652.016.027 3.323c.025 2.965.015 3.386.207 3.522.045.031.1.047.169.076.246.103.585.013.718-.19.088-.134.099-.427.124-3.439l.028-3.292h1.218l.014 3.206c.008 1.897-.008 3.323-.04 3.495-.111.602-.42 1.046-.903 1.3-.193.1-.348.126-.88.144-.608.02-.667.012-.97-.126-.41-.187-.593-.363-.81-.776zm8.729-6.271c-.01-.287-.004-.554.012-.595.023-.06.396-.072 2.008-.06l1.98.015v1.161l-.65.016-.65.015-.013 3.44-.015 3.44-.632.016c-.468.011-.643-.003-.677-.056-.025-.039-.045-1.594-.046-3.455v-3.385l-.651-.015-.65-.016zm4.483 2.79c-.008-1.822-.003-3.346.012-3.386.02-.053.194-.072.666-.072h.639v3.24c0 2.97-.01 3.45.212 3.611.052.038.118.058.2.09.21.08.255.08.433.007.08-.034.146-.055.197-.093.215-.159.204-.62.219-3.578l.016-3.28.62.015.62.016.016 3.04c.015 3.051-.006 3.526-.184 4.07-.111.339-.415.683-.764.867-.267.141-.329.15-1.004.15-.712 0-.723-.002-1.032-.18-.367-.212-.567-.455-.731-.887-.116-.308-.12-.39-.135-3.63m4.693 4.673v-8.14l1.314.02c1.28.02 1.323.024 1.62.163.365.173.56.37.729.739.11.241.129.383.146 1.13.026 1.114-.052 1.444-.44 1.846-.26.268-.264.279-.156.355.2.14.34.313.46.566.104.224.12.383.149 1.576.02.824.057 1.386.098 1.484.036.086.052.18.034.207-.017.028-.317.05-.666.05h-.634l-.063-.151c-.036-.089-.077-.686-.097-1.424q-.033-1.272-.102-1.393c-.125-.223-.291-.293-.688-.293h-.374l-.015 1.617-.014 1.617-.65.016zm5.364-6.621c.158-1.006.207-1.281.256-1.44.016-.052.258-.07.962-.07h.94l.03.18c.06.37.362 2.269.556 3.497.11.7.223 1.396.252 1.548a43 43 0 0 1 .163 1.023c.061.41.152.962.202 1.226s.075.52.057.567c-.028.071-.14.087-.646.087-.37 0-.537.005-.621-.075-.076-.07-.087-.21-.12-.478a11 11 0 0 0-.098-.622l-.061-.318h-.71c-.389 0-.722.023-.74.051-.017.028-.07.308-.119.622-.073.477-.092.677-.2.761-.09.07-.242.059-.537.059-.303 0-.562-.02-.576-.042-.025-.041.078-.755.403-2.778l.307-1.907zm4.036 6.55c-.053-.085-.062-7.97-.01-8.023.02-.02.32-.037.665-.037h.627v6.854l1.038.015 1.037.015v1.216l-1.656.015c-1.289.011-1.667-.001-1.701-.056m5.793.04-.014-4.05-.014-4.05h3.487v1.217h-2.159v2.156h.824c.638 0 .838.017.888.077.041.05.058.26.048.594l-.016.517-.872.016-.871.015v2.262l1.065.015 1.065.015.016.622.016.623-1.732-.014zm4.262 0-.014-4.05-.015-4.05h1.648l.056.208.538 2.004.359 1.326c.127.472.242.868.255.88s.023-.976.023-2.197v-2.22h1.162v8.13l-.644-.016c-.505-.012-.654-.033-.69-.098a6 6 0 0 1-.185-.608l-.615-2.295c-.26-.973-.52-1.918-.575-2.1l-.102-.332-.006 2.653c-.004 1.46-.027 2.686-.052 2.726-.033.052-.193.067-.594.055zm9.492.031v-8.134l.65.015.65.016v8.072l-.65.016zm2.192-.09c-.046-.12-.043-7.958.003-8.004.02-.02.395-.037.832-.037.447 0 .648-.025.767.062.126.093.158.314.296.832.091.345.252.938.356 1.318s.286 1.051.404 1.492l.214.8.015-2.251.014-2.253h1.161v8.128h-1.325l-.081-.29c-.045-.16-.158-.577-.252-.927-.268-1-.442-1.642-.609-2.239a88 88 0 0 1-.341-1.272l-.187-.718-.029 2.709c-.016 1.49-.034 2.715-.041 2.723a7 7 0 0 1-.588.014c-.474 0-.581-.016-.609-.088m5.003.088V69.82h3.487v1.217h-2.159v2.153l.845.015.844.016.015.594.016.594h-1.72v2.265l1.066.015 1.065.015v1.216l-1.729.014zm4.29-.03-.015-4.049-.014-4.05h3.488v1.217h-2.159v2.153l.844.015.844.016.016.592.016.593-.846.016-.846.015-.015 1.118-.015 1.119 1.067.015 1.066.015.016.622.016.623-1.732-.014zm4.247-3.98c-.008-2.19-.002-4.012.012-4.05.041-.106 2.298-.096 2.663.012.498.148.765.364.973.784l.185.377V72c0 .926-.002.948-.163 1.295q-.163.353-.367.5l-.203.148.222.186c.126.106.283.318.366.495.139.297.145.358.18 1.663.02.745.055 1.423.077 1.507l.04.152h-.636c-.524 0-.65-.017-.713-.092-.057-.07-.082-.404-.104-1.396-.029-1.38-.042-1.448-.311-1.66-.115-.09-.225-.114-.525-.114h-.379l-.015 1.617-.015 1.617h-1.273zm4.67 3.921c-.046-.12-.043-7.957.003-8.003.02-.02.319-.037.664-.037h.627v8.128h-.63c-.524 0-.637-.015-.664-.088m2.263.06-.014-4.05-.014-4.05h.799c.521 0 .813.021.837.06.021.034.145.463.275.955.131.49.329 1.229.441 1.64s.254.944.316 1.188c.062.243.134.48.16.525.027.047.048-.882.049-2.144l.001-2.228.595.016.595.016.016 3.925c.008 2.16.001 3.982-.015 4.05-.029.12-.052.125-.691.125h-.661l-.108-.374a71 71 0 0 1-.311-1.147 44 44 0 0 0-.278-1.023 59 59 0 0 1-.307-1.133 71 71 0 0 0-.36-1.327l-.129-.442-.004 2.653c-.002 1.46-.024 2.686-.049 2.726-.033.052-.192.067-.594.055zm-86.648-4.036c0-2.624-.006-2.679-.31-2.794-.077-.03-.325-.053-.551-.053h-.412v5.639h.466c.257 0 .507-.016.556-.034.24-.092.251-.221.251-2.758m15-1.659c0-.627-.06-.904-.228-1.056-.088-.08-.22-.11-.553-.124l-.437-.02v2.4l.437-.02c.676-.03.78-.188.78-1.18m22.526.016c0-.768-.06-1.01-.276-1.121-.095-.05-.31-.083-.523-.083h-.363v2.377h.375c.655 0 .788-.198.787-1.173m44.72-.043c.001-.6-.06-.879-.225-1.028-.084-.076-.221-.11-.511-.124-.218-.01-.416 0-.438.022-.023.024-.042.563-.042 1.2v1.158l.442-.02c.669-.03.772-.192.774-1.208M22.064 73.91l-.247-1.688-.095-.632c-.008-.043-.056.206-.108.553l-.27 1.793a50 50 0 0 0-.182 1.272c-.007.104.027.11.546.11h.554l-.016-.136c-.008-.075-.09-.648-.182-1.272m51.978.026-.255-1.71c-.045-.303-.092-.56-.104-.572s-.039.098-.059.245c-.02.148-.07.48-.114.738-.093.562-.363 2.414-.375 2.57-.008.105.026.111.545.111.52 0 .553-.006.545-.11a56 56 0 0 0-.183-1.272" fill="#fff"/><path fill-rule="evenodd" clip-rule="evenodd" d="M90.316 31.519c.07.022.152.046.234.068.206.054.388.12.405.147.016.027.082.049.144.049.103 0 1.796.54 2.066.66.06.027.297.111.525.188.46.153 1.1.392 1.357.505.09.04.347.143.57.227s.416.174.432.2c.015.024.066.044.111.044.046 0 .238.073.426.16.188.089.542.252.785.363a51 51 0 0 1 2.537 1.263c1.942 1.095 3.104 1.885 4.408 2.997.772.658 2.042 2.033 2.268 2.455.043.08.031.12-.016.118a13 13 0 0 0-3.756-2.556 53 53 0 0 0-2.978-1.494c-.547-.246-1.353-.583-1.494-.625a5 5 0 0 1-.426-.172 2.5 2.5 0 0 0-.322-.131c-.02 0-.289-.096-.599-.212a21 21 0 0 0-.784-.282 5 5 0 0 1-.456-.174 1.6 1.6 0 0 0-.28-.106c-.025 0-.318-.087-.65-.193a56 56 0 0 0-3.12-.916 9 9 0 0 1-.673-.193 2 2 0 0 0-.338-.081c-.162-.03-.519-.116-.793-.19a46 46 0 0 0-2.539-.585 30 30 0 0 1-.885-.187 22 22 0 0 0-1.031-.197c-.38-.065-.792-.142-.914-.173a4 4 0 0 0-.387-.078 32 32 0 0 1-1.55-.25c-.304-.057-.774-.13-1.043-.164a30 30 0 0 1-.941-.133 8 8 0 0 0-.666-.083 1 1 0 0 1-.315-.062.8.8 0 0 0-.304-.053c-.113 0-.42-.026-.682-.056l-1.673-.197a40 40 0 0 0-1.614-.163c-.23-.012-.812-.061-1.294-.108a47 47 0 0 0-1.32-.111c-.243-.015-.58-.039-.747-.053a114 114 0 0 0-3.528-.175c-.918-.024-9.294-.024-10.213 0-.762.02-3.032.132-3.528.175-.167.014-.466.036-.664.049-.426.027-.86.064-1.688.143a31 31 0 0 1-1.018.08c-.225.013-.947.086-1.605.163l-1.673.197c-.262.03-.574.055-.694.055s-.242.023-.27.05c-.03.028-.228.065-.44.084-.396.035-.956.116-2.187.316-.38.062-.99.16-1.356.217-.365.057-.926.154-1.245.216s-.669.124-.775.138a14 14 0 0 0-1.19.243 9 9 0 0 1-.72.143c-.152.02-.389.07-.526.113-.33.101-.62.172-1.023.25-.183.036-.557.123-.83.193-.275.07-.648.165-.83.21-.565.14-1.596.416-1.8.482-.106.035-.405.12-.664.19s-.582.166-.72.212c-.136.047-.348.115-.47.15a9 9 0 0 0-.498.168 10 10 0 0 1-.609.198 3 3 0 0 0-.387.13 2 2 0 0 1-.305.109c-.137.039-.299.09-.36.114-.06.024-.36.136-.664.249s-.659.253-.788.31-.26.104-.293.104-.245.087-.472.194a4 4 0 0 1-.458.193 3 3 0 0 0-.387.166 4 4 0 0 1-.372.166c-.066 0-2.111 1.022-2.607 1.303-.292.165-.541.3-.553.3-.021 0-.158.085-.779.48l-.015.006-.199.132c-.554.359-1.003.675-1.225.859q-.163.12-.325.242-.091.005-.04.03c-.26.197-.513.395-.738.584l-.015.005c-.166.043-.082-.108.269-.484.66-.71 1.014-1.042 1.897-1.78.517-.43 1.947-1.451 2.562-1.827.755-.462 1.701-1.02 1.78-1.048a.4.4 0 0 0 .13-.07c.053-.062 2.224-1.162 2.628-1.332.061-.026.298-.132.526-.236.651-.297.758-.342 1.522-.648.396-.16.794-.322.886-.361.091-.04.29-.114.443-.165.152-.05.351-.126.442-.166s.366-.142.61-.223l1.4-.474c.528-.178.992-.324 1.032-.324a.7.7 0 0 0 .231-.082l.118-.061.037-.012c5.66-1.626 11.637-2.724 17.746-3.273h.093c.084 0 .477-.024.873-.053a162 162 0 0 1 1.812-.121l1.093-.067v-.032q1.823-.093 3.654-.122v.063h2.767v-.07q1.825.021 3.651.107v.057l.651.038 1.62.089a39 39 0 0 1 1.315.088l.347.036v-.048q1.87.159 3.735.39v.005l.304.034.322.04a96 96 0 0 1 13.333 2.687zM1.772 69.764c-.366.077-.63.224-.9.5-.281.286-.414.605-.497 1.186-.07.497-.071 4.362-.001 4.847.114.79.439 1.303.985 1.555.22.101.362.12.924.12.617.002.684-.008.95-.148.379-.2.657-.501.804-.873.101-.256.124-.446.144-1.204l.023-.9-.628.015-.629.016-.029.774c-.016.426-.05.819-.076.873-.11.234-.566.331-.855.182-.281-.145-.285-.186-.285-2.84 0-2.321.007-2.483.104-2.642a.6.6 0 0 1 .972-.073c.134.16.142.203.142.8v.632h1.273l-.001-.622c0-.694-.08-1.076-.304-1.457-.159-.27-.52-.56-.84-.671-.263-.092-.986-.132-1.276-.07m35.589.003c-.579.114-1.11.563-1.26 1.063-.214.715-.156 1.562.149 2.196.14.292.325.511.99 1.172.45.447.88.92.957 1.05.28.478.308 1.075.065 1.357-.09.104-.19.146-.4.166-.25.024-.297.01-.463-.137-.178-.16-.185-.18-.208-.67l-.025-.505h-1.259v.4c.002.43.114.997.25 1.26.145.28.422.553.714.704.235.12.373.149.835.168.631.025.889-.028 1.258-.262.53-.336.783-.899.783-1.745 0-.98-.234-1.419-1.331-2.501-.94-.927-1.097-1.184-1.097-1.794 0-.448.123-.654.44-.734.17-.043.245-.032.408.055.227.123.33.371.337.813l.005.263h.605c.555 0 .608-.01.64-.11.066-.207-.09-1.063-.253-1.387-.109-.216-.455-.552-.7-.679-.334-.172-.971-.236-1.44-.143m17.807.018c-.355.078-.504.157-.793.421-.261.238-.4.5-.507.952-.124.527-.121 4.997.004 5.479.155.597.41.943.876 1.189.262.138.33.148.974.148s.711-.01.973-.148c.71-.374.995-1.091.954-2.395l-.018-.553-.617-.016-.618-.015-.019.808-.019.808-.188.168c-.169.15-.215.164-.467.14-.36-.034-.512-.198-.562-.606-.02-.16-.028-1.312-.018-2.559v-.12c.016-1.893.018-2.222.183-2.376a1 1 0 0 1 .128-.087l.015-.009c.336-.198.776-.03.878.337.032.115.058.44.059.723v.513l.623-.015.622-.016-.003-.636c-.006-1.019-.21-1.518-.772-1.887-.447-.294-1.066-.385-1.688-.248m37.707-.018a1.67 1.67 0 0 0-1.239 1.025c-.132.326-.132.331-.147 2.97-.015 2.525-.01 2.659.098 3.021.177.594.521.95 1.102 1.14.395.128 1.26.09 1.619-.071.348-.156.68-.51.833-.891.122-.302.127-.373.127-1.945v-1.63h-1.771v1.216l.266.016.267.018-.018.935c-.016.864-.026.944-.133 1.051-.145.145-.519.2-.737.11-.332-.137-.337-.182-.337-2.885 0-2.301.007-2.463.104-2.622a.6.6 0 0 1 .972-.073c.134.16.142.203.142.8v.632h1.285l-.022-.76c-.02-.673-.038-.796-.164-1.067a2.5 2.5 0 0 0-.311-.5c-.385-.437-1.18-.639-1.936-.49m32.153-.003c-.557.118-.934.41-1.209.94l-.157.304v5.706l.193.379c.351.685.866.94 1.821.898.436-.02.582-.05.808-.167.496-.258.808-.69.914-1.266.032-.173.05-.93.042-1.74l-.015-1.433h-1.771v1.217l.263.016.263.017v.818c0 .456-.027.896-.061.994-.152.435-.918.45-1.095.022-.047-.114-.061-.847-.05-2.68l.016-2.523.133-.142a.63.63 0 0 1 .675-.142c.286.119.351.283.382.963l.028.61.622.017.623.015v-.536c0-.731-.086-1.172-.296-1.524a1.7 1.7 0 0 0-.912-.707c-.298-.084-.943-.114-1.217-.056M4.968 73.881v4.066h.635c.613 0 .636-.005.666-.125.016-.068.023-1.89.014-4.05l-.015-3.925-.65-.016-.65-.015zm1.881-3.986c0 .041.039.297.086.567.048.27.149.901.225 1.403l.275 1.797c.075.486.184 1.208.242 1.603.059.395.159 1.042.223 1.438l.156.967.04.249h1.929l.072-.387c.04-.213.136-.81.214-1.327.249-1.641.626-4.091.826-5.363.077-.486.14-.916.14-.954 0-.05-.158-.069-.609-.069-.334 0-.609.019-.609.042 0 .022-.025.19-.056.373-.031.182-.118.755-.193 1.271l-.305 2.074c-.092.623-.209 1.427-.258 1.785-.05.359-.108.632-.128.608s-.066-.255-.1-.513c-.035-.259-.124-.88-.2-1.383-.075-.501-.189-1.273-.253-1.714a111 111 0 0 0-.364-2.418c-.026-.121-.047-.125-.69-.125-.524 0-.663.016-.663.076m5.02-.04c-.054.054-.046 7.938.008 8.024.034.053.21.067.678.055l.632-.015v-8.072l-.64-.016c-.352-.008-.657.002-.678.023m2.214 0c-.047.046-.052 7.881-.005 8.004.03.077.233.088 1.71.088s1.68-.01 1.71-.088c.063-.163.037-1.048-.033-1.118-.047-.046-.359-.066-1.051-.066h-.985l-.014-3.414-.014-3.414-.64-.016c-.352-.008-.657.002-.678.023m6.743.033a9 9 0 0 0-.11.567c-.08.466-.127.762-.415 2.599a174 174 0 0 1-.221 1.382c-.459 2.784-.553 3.412-.519 3.469.014.023.285.041.602.041.554 0 .578-.004.6-.124.013-.068.07-.398.126-.733l.102-.608.727-.015c.724-.015.727-.015.76.116.026.104.2 1.275.2 1.347 0 .01.3.017.665.017l.184.002c.245.003.377.004.436-.06.069-.076.04-.24-.024-.596l-.041-.23c-.06-.35-.184-1.109-.276-1.686l-.607-3.788a66 66 0 0 1-.2-1.299l-.013-.108c-.015-.138-.025-.224-.071-.277-.077-.087-.254-.087-.72-.085h-.223c-.702 0-.945.018-.962.07m3.76 0c-.014.038-.02 1.86-.012 4.05l.014 3.98h1.163l.019-2.791.019-2.792.162.608c.374 1.404.435 1.632.594 2.211.092.335.293 1.08.447 1.655.153.576.3 1.068.326 1.094s.331.04.679.031l.632-.015.014-4.052.014-4.052-.595.016-.596.016-.018 2.211-.018 2.212-.267-.995a341 341 0 0 0-.442-1.631c-.096-.35-.212-.785-.256-.968a10 10 0 0 0-.167-.594l-.086-.263h-.8c-.588 0-.806.018-.826.07m4.97 3.977.014 4.054 1.273-.002c1.205-.002 1.29-.009 1.6-.132q.68-.27.928-.986c.127-.37.128-.396.128-2.944 0-2.35-.008-2.595-.1-2.847-.198-.54-.45-.825-.923-1.042-.226-.104-.376-.117-1.592-.135l-1.343-.02zm10.558-3.44v.607l.65.016.65.015.014 3.444.015 3.443.65-.016.65-.015.014-3.44.014-3.44.65-.016.65-.015.016-.47c.01-.259.002-.526-.015-.594l-.03-.125h-3.928zm4.52-.569c-.046.046-.05 7.883-.004 8.003.028.073.14.088.664.088h.631v-3.262h.357c.43 0 .587.063.727.294.094.156.11.322.134 1.48.02.992.046 1.327.103 1.396.063.075.189.091.712.091h.637l-.04-.152c-.02-.083-.056-.761-.078-1.506-.039-1.293-.047-1.369-.182-1.664a1.6 1.6 0 0 0-.365-.495l-.223-.188.158-.096c.444-.27.63-.897.595-2.007-.023-.736-.033-.793-.204-1.15-.2-.419-.39-.577-.908-.759-.275-.097-.457-.11-1.495-.11-.65 0-1.2.017-1.22.037m4.624 3.43.016 3.472.174.332c.218.413.402.589.812.776.302.138.361.146.968.125.533-.017.688-.043.88-.144.485-.253.793-.697.904-1.3.032-.17.048-1.597.04-3.495l-.015-3.205H51.82l-.027 3.292c-.025 3.012-.036 3.305-.124 3.44-.133.202-.472.292-.718.189l-.054-.022c-.045-.017-.083-.031-.115-.054-.18-.127-.182-.504-.202-2.984l-.005-.539-.027-3.322-.652-.016-.652-.015zm8.757-3.394c-.016.04-.021.308-.012.595l.016.52.65.016.65.016.001 3.385c0 1.861.021 3.416.046 3.455.034.053.209.067.677.055l.632-.015.015-3.44.014-3.44.65-.016.65-.015v-1.161l-1.98-.015c-1.613-.012-1.986 0-2.009.06m4.483 0c-.015.039-.02 1.563-.012 3.386.016 3.239.019 3.321.135 3.628.164.433.364.676.731.888.309.178.32.18 1.032.18.675 0 .737-.01 1.004-.15.35-.184.653-.528.763-.867.179-.544.2-1.019.185-4.07l-.015-3.04-.62-.016-.621-.015-.016 3.28-.002.457c-.012 2.55-.014 2.97-.217 3.12a.6.6 0 0 1-.145.073l-.052.02c-.178.075-.222.074-.434-.007l-.042-.015a.7.7 0 0 1-.157-.074c-.213-.154-.213-.601-.212-3.25v-3.6h-.639c-.472 0-.645.019-.666.072m4.68 3.988v4.07l.651-.016.65-.015.015-1.617.015-1.618h.374c.397 0 .563.071.688.294q.069.12.102 1.393c.02.738.06 1.335.097 1.423l.063.153h.634c.35 0 .65-.023.666-.051.018-.028.002-.121-.034-.207-.04-.098-.078-.66-.098-1.484-.03-1.193-.045-1.352-.15-1.576a1.34 1.34 0 0 0-.459-.566c-.108-.076-.103-.087.156-.355.388-.402.466-.732.44-1.846-.017-.747-.035-.889-.146-1.13-.17-.37-.364-.566-.73-.739-.296-.14-.34-.144-1.619-.163l-1.314-.02zm5.621-3.992c-.049.16-.098.434-.256 1.44l-.3 1.891-.307 1.908c-.325 2.023-.428 2.737-.403 2.778.013.023.273.041.576.041h.104c.228.002.354.002.432-.058.098-.075.123-.244.18-.622l.021-.139c.048-.314.102-.594.12-.622.017-.028.35-.051.74-.051h.709l.06.318c.034.174.078.454.099.622l.007.057c.028.232.043.355.112.421.08.075.23.075.553.075h.07c.504 0 .617-.016.645-.087.018-.048-.008-.303-.057-.567a43 43 0 0 1-.202-1.226 43 43 0 0 0-.163-1.023 96 96 0 0 1-.252-1.548c-.194-1.229-.496-3.128-.556-3.497l-.03-.18h-.94c-.704 0-.945.017-.962.07m3.77-.032c-.053.053-.043 7.938.01 8.022.034.055.412.067 1.7.055l1.657-.014v-1.217l-1.037-.014-1.038-.016V69.82h-.627c-.345 0-.644.017-.664.037m5.789 4.013.014 4.05 1.731.014 1.732.015-.016-.623-.016-.623-1.065-.014-1.065-.016v-2.261l.871-.015.872-.016.016-.517c.01-.333-.007-.544-.048-.594-.05-.06-.25-.077-.888-.077h-.823v-2.157h2.159V69.82h-3.488zm4.261 0 .015 4.05.549.016c.401.011.56-.003.594-.056.025-.039.048-1.265.052-2.725l.006-2.653.102.331c.056.183.315 1.128.575 2.101l.615 2.295c.078.289.161.562.186.608.035.065.184.086.689.098l.644.016V69.82h-1.162v2.22c0 1.222-.01 2.211-.023 2.198a14 14 0 0 1-.255-.88l-.36-1.326a471 471 0 0 1-.537-2.005l-.056-.207h-1.648zm9.507.014v4.067l.65-.016.65-.015v-8.072l-.65-.016-.65-.015zm2.195-4.027c-.046.046-.049 7.883-.003 8.003.028.072.135.088.609.088.316 0 .58-.007.588-.014.007-.008.025-1.233.041-2.723l.03-2.71.186.72c.103.395.256.967.341 1.271.167.597.341 1.239.609 2.24.094.349.207.766.252.925l.081.29h1.325V69.82h-1.161l-.014 2.252-.015 2.253-.214-.801c-.118-.44-.3-1.112-.404-1.492a187 187 0 0 1-.425-1.583c-.084-.333-.125-.492-.227-.567-.095-.07-.241-.067-.523-.064l-.244.002c-.437 0-.811.017-.832.037m5 4.028v4.064l1.73-.015 1.729-.014v-1.217l-1.065-.014-1.066-.016v-2.264h1.72l-.016-.594-.015-.595-.844-.015-.845-.015v-2.153h2.159V69.82h-3.487zm4.275-.015.015 4.05 1.731.014 1.732.015-.016-.623-.016-.623-1.066-.014-1.067-.016.015-1.118.015-1.118.846-.016.846-.015-.016-.593-.016-.593-.844-.015-.844-.015v-2.153h2.159V69.82h-3.488zm4.274-3.98c-.014.037-.02 1.86-.012 4.05l.014 3.98h1.273l.015-1.617.015-1.618h.379c.3 0 .41.024.525.115.269.211.282.28.311 1.66.022.992.047 1.327.104 1.396.063.075.189.091.713.091h.636l-.04-.152c-.022-.083-.057-.761-.077-1.506-.035-1.305-.041-1.366-.18-1.663a1.7 1.7 0 0 0-.366-.495l-.222-.186.203-.148q.204-.147.367-.5c.161-.347.163-.369.163-1.294v-.941l-.185-.377c-.208-.42-.475-.636-.973-.784-.365-.108-2.622-.118-2.663-.012m4.661-.033c-.046.046-.049 7.883-.003 8.003.027.073.14.088.664.088h.63v-8.128h-.627c-.345 0-.644.017-.664.037m2.246 4.013.014 4.05.549.016c.402.011.561-.003.594-.056.025-.039.047-1.265.049-2.725l.004-2.653.129.442c.07.243.233.84.36 1.327.128.486.266.996.307 1.133s.167.597.278 1.023.252.942.311 1.147l.108.374h.661c.639 0 .662-.005.691-.125.016-.068.023-1.89.015-4.05l-.016-3.925-.595-.016-.595-.016-.001 2.228c-.001 1.261-.022 2.19-.049 2.144a4 4 0 0 1-.16-.525 93 93 0 0 0-.316-1.189c-.112-.41-.31-1.148-.441-1.64-.13-.49-.254-.92-.275-.953-.024-.04-.316-.06-.837-.06h-.799zm-86.944-2.78c.304.115.31.17.31 2.794 0 2.537-.011 2.666-.251 2.758-.05.018-.3.034-.556.034h-.466v-5.64h.412c.226 0 .474.024.55.053m15.082.08c.168.15.227.427.227 1.055 0 .992-.104 1.15-.78 1.18l-.437.02v-2.4l.437.02c.332.015.465.045.553.124m22.478-.05c.216.111.276.353.276 1.12 0 .976-.132 1.174-.787 1.174h-.375v-2.378h.363c.214 0 .428.035.523.084m44.771.05c.165.15.226.428.225 1.028-.002 1.016-.105 1.177-.774 1.207l-.442.02v-1.157c0-.637.019-1.177.042-1.2.022-.023.22-.033.438-.022.29.015.427.048.511.124m-92.345 1.055.247 1.688c.092.624.174 1.196.182 1.272l.016.136h-.554c-.519 0-.553-.007-.546-.11.003-.061.086-.633.182-1.272l.27-1.793c.052-.347.1-.596.108-.553zm51.97.004c.044.302.16 1.072.255 1.71.096.639.179 1.21.183 1.272.008.104-.025.11-.545.11s-.553-.006-.545-.11c.012-.157.282-2.01.375-2.57.043-.26.094-.592.114-.739s.047-.257.06-.245c.011.012.058.27.103.572" fill="#F36F2B"/></svg>